<svg width="651" height="123" viewBox="0 0 651 123" fill="none" xmlns="http://www.w3.org/2000/svg">
<path d="M39.9003 16.36L26.7003 51.28H53.1003L39.9003 16.36ZM0.900325 86.32H11.4603L43.8603 0.399998H46.7403L79.3803 86.32H90.0603V88H53.1003V86.32H66.4203L53.8203 52.96H25.9803L13.3803 86.32H26.7003V88H0.900325V86.32ZM93.5656 86.32H102.806V38.2H93.5656V36.52H112.886V49.12H113.126C114.806 44.32 117.206 40.8 120.326 38.56C123.526 36.32 127.366 35.2 131.846 35.2C135.846 35.2 139.366 36.08 142.406 37.84C145.526 39.6 147.566 42.52 148.526 46.6H148.766C149.326 45.16 150.086 43.76 151.046 42.4C152.006 41.04 153.206 39.84 154.646 38.8C156.086 37.68 157.766 36.8 159.686 36.16C161.686 35.52 163.926 35.2 166.406 35.2C178.086 35.2 183.926 41.16 183.926 53.08V86.32H193.166V88H164.366V86.32H173.606V45.52C173.606 42.8 172.846 40.68 171.326 39.16C169.886 37.64 167.886 36.88 165.326 36.88C163.326 36.88 161.326 37.28 159.326 38.08C157.326 38.8 155.526 39.92 153.926 41.44C152.326 42.96 151.006 44.92 149.966 47.32C149.006 49.72 148.526 52.52 148.526 55.72V86.32H157.766V88H128.966V86.32H138.206V47.2C138.206 43.68 137.486 41.08 136.046 39.4C134.606 37.72 132.686 36.88 130.286 36.88C128.606 36.88 126.766 37.32 124.766 38.2C122.766 39 120.886 40.32 119.126 42.16C117.446 43.92 116.006 46.24 114.806 49.12C113.686 52 113.126 55.52 113.126 59.68V86.32H122.366V88H93.5656V86.32ZM195.008 36.52H224.408V38.2H214.328L229.808 75.88L246.008 38.2H236.048V36.52H254.408V38.2H247.928L228.128 84.52C226.608 87.96 225.168 91.4 223.808 94.84C222.448 98.36 221.088 101.88 219.728 105.4C218.608 108.28 217.488 110.8 216.368 112.96C215.248 115.12 214.048 116.88 212.768 118.24C211.568 119.6 210.248 120.6 208.808 121.24C207.368 121.96 205.688 122.32 203.768 122.32C201.448 122.32 199.568 121.96 198.128 121.24C196.768 120.52 195.688 119.68 194.888 118.72C194.088 117.76 193.568 116.76 193.328 115.72C193.088 114.68 192.968 113.8 192.968 113.08C192.968 111.08 193.528 109.56 194.648 108.52C195.768 107.56 197.128 107.08 198.728 107.08C199.288 107.08 199.888 107.12 200.528 107.2C201.168 107.36 201.768 107.6 202.328 107.92C202.888 108.24 203.368 108.68 203.768 109.24C204.168 109.8 204.368 110.48 204.368 111.28C204.368 112.4 204.008 113.44 203.288 114.4C202.648 115.44 202.328 116.56 202.328 117.76C202.328 118.8 202.608 119.48 203.168 119.8C203.728 120.12 204.488 120.28 205.448 120.28C206.728 120.28 207.888 119.96 208.928 119.32C210.048 118.76 211.128 117.8 212.168 116.44C213.208 115.08 214.248 113.28 215.288 111.04C216.328 108.88 217.488 106.2 218.768 103L224.048 89.56L203.288 38.2H195.008V36.52ZM298.18 62.2H299.5C300.38 66.52 301.5 70.16 302.86 73.12C304.3 76.08 305.86 78.52 307.54 80.44C309.22 82.36 310.98 83.84 312.82 84.88C314.66 85.92 316.5 86.68 318.34 87.16C320.26 87.64 322.06 87.92 323.74 88C325.5 88.08 327.14 88.12 328.66 88.12C332.9 88.12 336.38 87.48 339.1 86.2C341.82 84.92 343.98 83.32 345.58 81.4C347.18 79.4 348.3 77.28 348.94 75.04C349.58 72.72 349.9 70.6 349.9 68.68C349.9 65.88 349.38 63.48 348.34 61.48C347.3 59.48 345.98 57.8 344.38 56.44C342.78 55 341.02 53.84 339.1 52.96C337.26 52.08 335.5 51.4 333.82 50.92L320.02 46.72C313.54 44.72 308.62 42.08 305.26 38.8C301.98 35.52 300.34 31.12 300.34 25.6C300.34 22 300.98 18.68 302.26 15.64C303.54 12.52 305.34 9.84 307.66 7.6C309.98 5.36 312.74 3.6 315.94 2.31999C319.22 1.04 322.78 0.399998 326.62 0.399998C329.42 0.399998 331.74 0.639997 333.58 1.12C335.5 1.59999 337.14 2.15999 338.5 2.8C339.86 3.36 341.06 3.88 342.1 4.36C343.22 4.84 344.34 5.07999 345.46 5.07999C346.5 5.07999 347.18 4.96 347.5 4.72C347.9 4.4 348.42 3.68 349.06 2.56H350.74V24.28H349.3C348.82 21.4 347.98 18.64 346.78 16C345.66 13.28 344.18 10.92 342.34 8.92C340.5 6.83999 338.26 5.19999 335.62 3.99999C333.06 2.72 330.06 2.08 326.62 2.08C324.7 2.08 322.58 2.36 320.26 2.91999C317.94 3.4 315.78 4.28 313.78 5.56C311.78 6.84 310.1 8.52 308.74 10.6C307.46 12.68 306.82 15.32 306.82 18.52C306.82 21.08 307.34 23.28 308.38 25.12C309.42 26.88 310.74 28.4 312.34 29.68C314.02 30.88 315.86 31.92 317.86 32.8C319.94 33.6 322.02 34.32 324.1 34.96L338.62 39.52C340.14 40 342.06 40.64 344.38 41.44C346.7 42.24 348.94 43.44 351.1 45.04C353.34 46.64 355.22 48.76 356.74 51.4C358.34 54.04 359.14 57.4 359.14 61.48C359.14 65.24 358.42 68.84 356.98 72.28C355.62 75.64 353.62 78.64 350.98 81.28C348.34 83.84 345.14 85.92 341.38 87.52C337.62 89.04 333.38 89.8 328.66 89.8C326.98 89.8 325.5 89.76 324.22 89.68C322.94 89.68 321.74 89.6 320.62 89.44C319.5 89.28 318.38 89.08 317.26 88.84C316.14 88.68 314.9 88.4 313.54 88C311.94 87.52 310.22 86.96 308.38 86.32C306.54 85.68 304.94 85.36 303.58 85.36C302.38 85.36 301.54 85.6 301.06 86.08C300.66 86.56 300.3 87.2 299.98 88H298.18V62.2ZM381.579 8.55999C381.579 6.8 382.179 5.32 383.379 4.11999C384.659 2.83999 386.179 2.2 387.939 2.2C389.699 2.2 391.179 2.83999 392.379 4.11999C393.659 5.32 394.299 6.8 394.299 8.55999C394.299 10.32 393.659 11.84 392.379 13.12C391.179 14.32 389.699 14.92 387.939 14.92C386.179 14.92 384.659 14.32 383.379 13.12C382.179 11.84 381.579 10.32 381.579 8.55999ZM373.779 86.32H383.019V38.2H373.779V36.52H393.339V86.32H402.579V88H373.779V86.32ZM409.527 86.32H418.767V38.2H409.527V36.52H428.847V49.12H429.087C430.767 44.32 433.167 40.8 436.287 38.56C439.487 36.32 443.327 35.2 447.807 35.2C451.807 35.2 455.327 36.08 458.367 37.84C461.487 39.6 463.527 42.52 464.487 46.6H464.727C465.287 45.16 466.047 43.76 467.007 42.4C467.967 41.04 469.167 39.84 470.607 38.8C472.047 37.68 473.727 36.8 475.647 36.16C477.647 35.52 479.887 35.2 482.367 35.2C494.047 35.2 499.887 41.16 499.887 53.08V86.32H509.127V88H480.327V86.32H489.567V45.52C489.567 42.8 488.807 40.68 487.287 39.16C485.847 37.64 483.847 36.88 481.287 36.88C479.287 36.88 477.287 37.28 475.287 38.08C473.287 38.8 471.487 39.92 469.887 41.44C468.287 42.96 466.967 44.92 465.927 47.32C464.967 49.72 464.487 52.52 464.487 55.72V86.32H473.727V88H444.927V86.32H454.167V47.2C454.167 43.68 453.447 41.08 452.007 39.4C450.567 37.72 448.647 36.88 446.247 36.88C444.567 36.88 442.727 37.32 440.727 38.2C438.727 39 436.847 40.32 435.087 42.16C433.407 43.92 431.967 46.24 430.767 49.12C429.647 52 429.087 55.52 429.087 59.68V86.32H438.327V88H409.527V86.32ZM530.141 62.32C530.141 68 530.581 72.52 531.461 75.88C532.341 79.24 533.501 81.84 534.941 83.68C536.381 85.44 538.061 86.6 539.981 87.16C541.901 87.72 543.941 88 546.101 88C548.261 88 550.301 87.72 552.221 87.16C554.141 86.6 555.821 85.44 557.261 83.68C558.701 81.84 559.861 79.24 560.741 75.88C561.621 72.52 562.061 68 562.061 62.32C562.061 57.52 561.741 53.52 561.101 50.32C560.461 47.04 559.461 44.4 558.101 42.4C556.821 40.32 555.181 38.84 553.181 37.96C551.181 37.08 548.821 36.64 546.101 36.64C543.381 36.64 541.021 37.08 539.021 37.96C537.021 38.84 535.341 40.32 533.981 42.4C532.701 44.4 531.741 47.04 531.101 50.32C530.461 53.52 530.141 57.52 530.141 62.32ZM518.141 62.32C518.141 58.4 518.981 54.76 520.661 51.4C522.421 48.04 524.621 45.16 527.261 42.76C529.981 40.28 532.981 38.36 536.261 37C539.621 35.64 542.901 34.96 546.101 34.96C549.301 34.96 552.541 35.64 555.821 37C559.181 38.36 562.181 40.28 564.821 42.76C567.541 45.16 569.741 48.04 571.421 51.4C573.181 54.76 574.061 58.4 574.061 62.32C574.061 66.08 573.261 69.64 571.661 73C570.061 76.28 567.941 79.16 565.301 81.64C562.741 84.12 559.781 86.08 556.421 87.52C553.061 88.96 549.621 89.68 546.101 89.68C542.581 89.68 539.141 88.96 535.781 87.52C532.421 86.08 529.421 84.12 526.781 81.64C524.221 79.16 522.141 76.28 520.541 73C518.941 69.64 518.141 66.08 518.141 62.32ZM583.62 86.32H592.86V38.2H583.62V36.52H602.94V49.36H603.18C603.66 48.32 604.34 47 605.22 45.4C606.18 43.8 607.46 42.24 609.06 40.72C610.66 39.2 612.66 37.92 615.06 36.88C617.46 35.76 620.38 35.2 623.82 35.2C629.1 35.2 633.38 36.48 636.66 39.04C640.02 41.6 641.7 45.68 641.7 51.28V86.32H650.94V88H622.14V86.32H631.38V47.56C631.38 44.44 630.62 41.88 629.1 39.88C627.66 37.88 625.38 36.88 622.26 36.88C619.7 36.88 617.26 37.44 614.94 38.56C612.62 39.68 610.58 41.24 608.82 43.24C607.06 45.24 605.66 47.6 604.62 50.32C603.66 53.04 603.18 56 603.18 59.2V86.32H612.42V88H583.62V86.32Z" fill="black"/>
<path d="M39.9003 16.36L40.6486 16.0771L39.9003 14.0975L39.152 16.0771L39.9003 16.36ZM26.7003 51.28L25.952 50.9971L25.5427 52.08H26.7003V51.28ZM53.1003 51.28V52.08H54.258L53.8486 50.9971L53.1003 51.28ZM0.900325 86.32V85.52H0.100325V86.32H0.900325ZM11.4603 86.32V87.12H12.0136L12.2089 86.6023L11.4603 86.32ZM43.8603 0.399998V-0.400002H43.307L43.1118 0.117725L43.8603 0.399998ZM46.7403 0.399998L47.4882 0.115896L47.2922 -0.400002H46.7403V0.399998ZM79.3803 86.32L78.6325 86.6041L78.8285 87.12H79.3803V86.32ZM90.0603 86.32H90.8603V85.52H90.0603V86.32ZM90.0603 88V88.8H90.8603V88H90.0603ZM53.1003 88H52.3003V88.8H53.1003V88ZM53.1003 86.32V85.52H52.3003V86.32H53.1003ZM66.4203 86.32V87.12H67.5776L67.1687 86.0373L66.4203 86.32ZM53.8203 52.96L54.5687 52.6773L54.3733 52.16H53.8203V52.96ZM25.9803 52.96V52.16H25.4273L25.2319 52.6773L25.9803 52.96ZM13.3803 86.32L12.6319 86.0373L12.223 87.12H13.3803V86.32ZM26.7003 86.32H27.5003V85.52H26.7003V86.32ZM26.7003 88V88.8H27.5003V88H26.7003ZM0.900325 88H0.100325V88.8H0.900325V88ZM39.152 16.0771L25.952 50.9971L27.4486 51.5629L40.6486 16.6429L39.152 16.0771ZM26.7003 52.08H53.1003V50.48H26.7003V52.08ZM53.8486 50.9971L40.6486 16.0771L39.152 16.6429L52.352 51.5629L53.8486 50.9971ZM0.900325 87.12H11.4603V85.52H0.900325V87.12ZM12.2089 86.6023L44.6089 0.682271L43.1118 0.117725L10.7118 86.0377L12.2089 86.6023ZM43.8603 1.2H46.7403V-0.400002H43.8603V1.2ZM45.9925 0.684099L78.6325 86.6041L80.1282 86.0359L47.4882 0.115896L45.9925 0.684099ZM79.3803 87.12H90.0603V85.52H79.3803V87.12ZM89.2603 86.32V88H90.8603V86.32H89.2603ZM90.0603 87.2H53.1003V88.8H90.0603V87.2ZM53.9003 88V86.32H52.3003V88H53.9003ZM53.1003 87.12H66.4203V85.52H53.1003V87.12ZM67.1687 86.0373L54.5687 52.6773L53.0719 53.2427L65.6719 86.6027L67.1687 86.0373ZM53.8203 52.16H25.9803V53.76H53.8203V52.16ZM25.2319 52.6773L12.6319 86.0373L14.1287 86.6027L26.7287 53.2427L25.2319 52.6773ZM13.3803 87.12H26.7003V85.52H13.3803V87.12ZM25.9003 86.32V88H27.5003V86.32H25.9003ZM26.7003 87.2H0.900325V88.8H26.7003V87.2ZM1.70032 88V86.32H0.100325V88H1.70032ZM93.5656 86.32V85.52H92.7656V86.32H93.5656ZM102.806 86.32V87.12H103.606V86.32H102.806ZM102.806 38.2H103.606V37.4H102.806V38.2ZM93.5656 38.2H92.7656V39H93.5656V38.2ZM93.5656 36.52V35.72H92.7656V36.52H93.5656ZM112.886 36.52H113.686V35.72H112.886V36.52ZM112.886 49.12H112.086V49.92H112.886V49.12ZM113.126 49.12V49.92H113.693L113.881 49.3843L113.126 49.12ZM120.326 38.56L119.867 37.9046L119.859 37.9101L120.326 38.56ZM142.406 37.84L142.005 38.5324L142.013 38.5368L142.406 37.84ZM148.526 46.6L147.747 46.7832L147.892 47.4H148.526V46.6ZM148.766 46.6V47.4H149.313L149.511 46.89L148.766 46.6ZM151.046 42.4L150.392 41.9386L150.392 41.9387L151.046 42.4ZM154.646 38.8L155.114 39.4485L155.126 39.4402L155.137 39.4315L154.646 38.8ZM159.686 36.16L159.442 35.398L159.433 35.4011L159.686 36.16ZM183.926 86.32H183.126V87.12H183.926V86.32ZM193.166 86.32H193.966V85.52H193.166V86.32ZM193.166 88V88.8H193.966V88H193.166ZM164.366 88H163.566V88.8H164.366V88ZM164.366 86.32V85.52H163.566V86.32H164.366ZM173.606 86.32V87.12H174.406V86.32H173.606ZM171.326 39.16L170.745 39.7102L170.752 39.718L170.76 39.7257L171.326 39.16ZM159.326 38.08L159.597 38.8327L159.61 38.828L159.623 38.8228L159.326 38.08ZM153.926 41.44L153.375 40.86L153.375 40.86L153.926 41.44ZM149.966 47.32L149.232 47.0019L149.227 47.0123L149.223 47.0229L149.966 47.32ZM148.526 86.32H147.726V87.12H148.526V86.32ZM157.766 86.32H158.566V85.52H157.766V86.32ZM157.766 88V88.8H158.566V88H157.766ZM128.966 88H128.166V88.8H128.966V88ZM128.966 86.32V85.52H128.166V86.32H128.966ZM138.206 86.32V87.12H139.006V86.32H138.206ZM136.046 39.4L136.653 38.8794L136.653 38.8794L136.046 39.4ZM124.766 38.2L125.063 38.9428L125.075 38.9377L125.088 38.9322L124.766 38.2ZM119.126 42.16L118.548 41.607L118.547 41.6076L119.126 42.16ZM114.806 49.12L114.067 48.8123L114.063 48.8211L114.06 48.83L114.806 49.12ZM113.126 86.32H112.326V87.12H113.126V86.32ZM122.366 86.32H123.166V85.52H122.366V86.32ZM122.366 88V88.8H123.166V88H122.366ZM93.5656 88H92.7656V88.8H93.5656V88ZM93.5656 87.12H102.806V85.52H93.5656V87.12ZM103.606 86.32V38.2H102.006V86.32H103.606ZM102.806 37.4H93.5656V39H102.806V37.4ZM94.3656 38.2V36.52H92.7656V38.2H94.3656ZM93.5656 37.32H112.886V35.72H93.5656V37.32ZM112.086 36.52V49.12H113.686V36.52H112.086ZM112.886 49.92H113.126V48.32H112.886V49.92ZM113.881 49.3843C115.524 44.6897 117.843 41.3273 120.792 39.2099L119.859 37.9101C116.568 40.2727 114.087 43.9503 112.371 48.8557L113.881 49.3843ZM120.784 39.2154C123.831 37.0829 127.505 36 131.846 36V34.4C127.226 34.4 123.22 35.5571 119.867 37.9046L120.784 39.2154ZM131.846 36C135.725 36 139.103 36.8522 142.005 38.5323L142.806 37.1477C139.629 35.3078 135.967 34.4 131.846 34.4V36ZM142.013 38.5368C144.904 40.1681 146.829 42.8803 147.747 46.7832L149.304 46.4168C148.303 42.1597 146.147 39.0319 142.799 37.1432L142.013 38.5368ZM148.526 47.4H148.766V45.8H148.526V47.4ZM149.511 46.89C150.046 45.5151 150.774 44.1723 151.699 42.8613L150.392 41.9387C149.397 43.3477 148.605 44.8049 148.02 46.31L149.511 46.89ZM151.699 42.8613C152.605 41.5782 153.741 40.4403 155.114 39.4485L154.177 38.1515C152.67 39.2397 151.406 40.5017 150.392 41.9386L151.699 42.8613ZM155.137 39.4315C156.498 38.3729 158.095 37.5334 159.939 36.9189L159.433 35.4011C157.436 36.0666 155.673 36.9871 154.154 38.1685L155.137 39.4315ZM159.929 36.9219C161.838 36.3112 163.994 36 166.406 36V34.4C163.857 34.4 161.533 34.7288 159.442 35.3981L159.929 36.9219ZM166.406 36C172.118 36 176.257 37.4564 178.974 40.2299C181.695 43.0064 183.126 47.2393 183.126 53.08H184.726C184.726 47.0007 183.236 42.2935 180.117 39.1101C176.995 35.9236 172.373 34.4 166.406 34.4V36ZM183.126 53.08V86.32H184.726V53.08H183.126ZM183.926 87.12H193.166V85.52H183.926V87.12ZM192.366 86.32V88H193.966V86.32H192.366ZM193.166 87.2H164.366V88.8H193.166V87.2ZM165.166 88V86.32H163.566V88H165.166ZM164.366 87.12H173.606V85.52H164.366V87.12ZM174.406 86.32V45.52H172.806V86.32H174.406ZM174.406 45.52C174.406 42.6471 173.599 40.3016 171.891 38.5943L170.76 39.7257C172.093 41.0584 172.806 42.9529 172.806 45.52H174.406ZM171.906 38.6098C170.283 36.8959 168.053 36.08 165.326 36.08V37.68C167.718 37.68 169.489 38.3841 170.745 39.7102L171.906 38.6098ZM165.326 36.08C163.216 36.08 161.116 36.5024 159.029 37.3372L159.623 38.8228C161.536 38.0576 163.435 37.68 165.326 37.68V36.08ZM159.055 37.3273C156.946 38.0863 155.052 39.2666 153.375 40.86L154.477 42.02C155.999 40.5734 157.705 39.5137 159.597 38.8327L159.055 37.3273ZM153.375 40.86C151.684 42.4665 150.307 44.5212 149.232 47.0019L150.7 47.6381C151.705 45.3188 152.968 43.4535 154.477 42.02L153.375 40.86ZM149.223 47.0229C148.217 49.5369 147.726 52.4416 147.726 55.72H149.326C149.326 52.5984 149.794 49.9031 150.708 47.6171L149.223 47.0229ZM147.726 55.72V86.32H149.326V55.72H147.726ZM148.526 87.12H157.766V85.52H148.526V87.12ZM156.966 86.32V88H158.566V86.32H156.966ZM157.766 87.2H128.966V88.8H157.766V87.2ZM129.766 88V86.32H128.166V88H129.766ZM128.966 87.12H138.206V85.52H128.966V87.12ZM139.006 86.32V47.2H137.406V86.32H139.006ZM139.006 47.2C139.006 43.5955 138.272 40.7687 136.653 38.8794L135.438 39.9206C136.699 41.3913 137.406 43.7645 137.406 47.2H139.006ZM136.653 38.8794C135.047 37.0057 132.897 36.08 130.286 36.08V37.68C132.474 37.68 134.164 38.4343 135.438 39.9206L136.653 38.8794ZM130.286 36.08C128.467 36.08 126.516 36.5559 124.443 37.4677L125.088 38.9322C127.015 38.0841 128.745 37.68 130.286 37.68V36.08ZM124.469 37.4572C122.345 38.3067 120.372 39.6993 118.548 41.607L119.704 42.713C121.399 40.9407 123.186 39.6933 125.063 38.9428L124.469 37.4572ZM118.547 41.6076C116.783 43.4556 115.295 45.8661 114.067 48.8123L115.544 49.4277C116.716 46.6139 118.108 44.3844 119.704 42.7124L118.547 41.6076ZM114.06 48.83C112.894 51.8284 112.326 55.4531 112.326 59.68H113.926C113.926 55.5869 114.477 52.1716 115.551 49.41L114.06 48.83ZM112.326 59.68V86.32H113.926V59.68H112.326ZM113.126 87.12H122.366V85.52H113.126V87.12ZM121.566 86.32V88H123.166V86.32H121.566ZM122.366 87.2H93.5656V88.8H122.366V87.2ZM94.3656 88V86.32H92.7656V88H94.3656ZM195.008 36.52V35.72H194.208V36.52H195.008ZM224.408 36.52H225.208V35.72H224.408V36.52ZM224.408 38.2V39H225.208V38.2H224.408ZM214.328 38.2V37.4H213.134L213.588 38.504L214.328 38.2ZM229.808 75.88L229.068 76.184L229.791 77.9444L230.543 76.196L229.808 75.88ZM246.008 38.2L246.743 38.516L247.223 37.4H246.008V38.2ZM236.048 38.2H235.248V39H236.048V38.2ZM236.048 36.52V35.72H235.248V36.52H236.048ZM254.408 36.52H255.208V35.72H254.408V36.52ZM254.408 38.2V39H255.208V38.2H254.408ZM247.928 38.2V37.4H247.4L247.192 37.8856L247.928 38.2ZM228.128 84.52L228.86 84.8434L228.863 84.8344L228.128 84.52ZM223.808 94.84L223.064 94.5459L223.062 94.5517L223.808 94.84ZM219.728 105.4L220.473 105.69L220.474 105.688L219.728 105.4ZM216.368 112.96L215.658 112.592L215.658 112.592L216.368 112.96ZM212.768 118.24L212.185 117.692L212.176 117.701L212.168 117.711L212.768 118.24ZM208.808 121.24L208.483 120.509L208.466 120.516L208.45 120.524L208.808 121.24ZM198.128 121.24L197.754 121.947L197.762 121.951L197.77 121.956L198.128 121.24ZM194.888 118.72L195.502 118.208L194.888 118.72ZM193.328 115.72L194.107 115.54L194.107 115.54L193.328 115.72ZM194.648 108.52L194.127 107.913L194.115 107.923L194.103 107.934L194.648 108.52ZM200.528 107.2L200.722 106.424L200.675 106.412L200.627 106.406L200.528 107.2ZM202.328 107.92L201.931 108.615L201.931 108.615L202.328 107.92ZM203.768 109.24L204.419 108.775L204.419 108.775L203.768 109.24ZM203.288 114.4L202.648 113.92L202.626 113.949L202.606 113.981L203.288 114.4ZM203.168 119.8L203.565 119.105L203.168 119.8ZM208.928 119.32L208.57 118.604L208.539 118.62L208.509 118.639L208.928 119.32ZM212.168 116.44L212.803 116.926L212.803 116.926L212.168 116.44ZM215.288 111.04L214.567 110.693L214.562 110.703L215.288 111.04ZM218.768 103L219.511 103.297L219.512 103.293L218.768 103ZM224.048 89.56L224.792 89.8525L224.909 89.5558L224.79 89.2602L224.048 89.56ZM203.288 38.2L204.03 37.9002L203.827 37.4H203.288V38.2ZM195.008 38.2H194.208V39H195.008V38.2ZM195.008 37.32H224.408V35.72H195.008V37.32ZM223.608 36.52V38.2H225.208V36.52H223.608ZM224.408 37.4H214.328V39H224.408V37.4ZM213.588 38.504L229.068 76.184L230.548 75.576L215.068 37.896L213.588 38.504ZM230.543 76.196L246.743 38.516L245.273 37.884L229.073 75.564L230.543 76.196ZM246.008 37.4H236.048V39H246.008V37.4ZM236.848 38.2V36.52H235.248V38.2H236.848ZM236.048 37.32H254.408V35.72H236.048V37.32ZM253.608 36.52V38.2H255.208V36.52H253.608ZM254.408 37.4H247.928V39H254.408V37.4ZM247.192 37.8856L227.392 84.2056L228.863 84.8344L248.663 38.5144L247.192 37.8856ZM227.396 84.1967C225.872 87.6462 224.428 91.0959 223.064 94.5459L224.552 95.1341C225.908 91.7041 227.344 88.2738 228.86 84.8433L227.396 84.1967ZM223.062 94.5517C221.702 98.0717 220.342 101.592 218.982 105.112L220.474 105.688C221.834 102.168 223.194 98.6483 224.554 95.1283L223.062 94.5517ZM218.982 105.11C217.87 107.97 216.761 110.463 215.658 112.592L217.078 113.328C218.214 111.137 219.346 108.59 220.473 105.69L218.982 105.11ZM215.658 112.592C214.562 114.705 213.402 116.399 212.185 117.692L213.35 118.788C214.694 117.361 215.934 115.535 217.078 113.328L215.658 112.592ZM212.168 117.711C211.033 118.997 209.803 119.922 208.483 120.509L209.133 121.971C210.693 121.278 212.103 120.203 213.368 118.769L212.168 117.711ZM208.45 120.524C207.141 121.179 205.587 121.52 203.768 121.52V123.12C205.788 123.12 207.595 122.741 209.166 121.956L208.45 120.524ZM203.768 121.52C201.521 121.52 199.777 121.17 198.486 120.524L197.77 121.956C199.359 122.75 201.375 123.12 203.768 123.12V121.52ZM198.502 120.533C197.213 119.851 196.222 119.072 195.502 118.208L194.273 119.232C195.153 120.288 196.322 121.189 197.754 121.947L198.502 120.533ZM195.502 118.208C194.769 117.328 194.315 116.439 194.107 115.54L192.548 115.9C192.821 117.081 193.407 118.192 194.273 119.232L195.502 118.208ZM194.107 115.54C193.875 114.534 193.768 113.718 193.768 113.08H192.168C192.168 113.882 192.301 114.826 192.548 115.9L194.107 115.54ZM193.768 113.08C193.768 111.23 194.281 109.952 195.192 109.106L194.103 107.934C192.774 109.168 192.168 110.93 192.168 113.08H193.768ZM195.168 109.127C196.131 108.303 197.301 107.88 198.728 107.88V106.28C196.954 106.28 195.405 106.817 194.127 107.913L195.168 109.127ZM198.728 107.88C199.25 107.88 199.817 107.917 200.429 107.994L200.627 106.406C199.959 106.323 199.326 106.28 198.728 106.28V107.88ZM200.334 107.976C200.904 108.119 201.436 108.332 201.931 108.615L202.725 107.225C202.1 106.868 201.431 106.601 200.722 106.424L200.334 107.976ZM201.931 108.615C202.384 108.874 202.779 109.233 203.117 109.705L204.419 108.775C203.956 108.127 203.392 107.606 202.725 107.225L201.931 108.615ZM203.117 109.705C203.405 110.108 203.568 110.619 203.568 111.28H205.168C205.168 110.341 204.931 109.492 204.419 108.775L203.117 109.705ZM203.568 111.28C203.568 112.214 203.272 113.088 202.648 113.92L203.928 114.88C204.744 113.792 205.168 112.586 205.168 111.28H203.568ZM202.606 113.981C201.89 115.144 201.528 116.409 201.528 117.76H203.128C203.128 116.711 203.405 115.736 203.969 114.819L202.606 113.981ZM201.528 117.76C201.528 118.901 201.834 119.959 202.771 120.495L203.565 119.105C203.381 119.001 203.128 118.699 203.128 117.76H201.528ZM202.771 120.495C203.497 120.909 204.412 121.08 205.448 121.08V119.48C204.564 119.48 203.959 119.331 203.565 119.105L202.771 120.495ZM205.448 121.08C206.868 121.08 208.175 120.723 209.347 120.001L208.509 118.639C207.601 119.197 206.587 119.48 205.448 119.48V121.08ZM209.286 120.036C210.547 119.405 211.715 118.349 212.803 116.926L211.532 115.954C210.541 117.251 209.549 118.115 208.57 118.604L209.286 120.036ZM212.803 116.926C213.89 115.504 214.959 113.649 216.013 111.377L214.562 110.703C213.537 112.911 212.525 114.656 211.532 115.954L212.803 116.926ZM216.009 111.387C217.059 109.205 218.226 106.507 219.511 103.297L218.025 102.703C216.749 105.893 215.597 108.555 214.567 110.693L216.009 111.387ZM219.512 103.293L224.792 89.8525L223.303 89.2675L218.023 102.707L219.512 103.293ZM224.79 89.2602L204.03 37.9002L202.546 38.4998L223.306 89.8598L224.79 89.2602ZM203.288 37.4H195.008V39H203.288V37.4ZM195.808 38.2V36.52H194.208V38.2H195.808ZM298.18 62.2V61.4H297.38V62.2H298.18ZM299.5 62.2L300.284 62.0403L300.153 61.4H299.5V62.2ZM302.86 73.12L302.133 73.454L302.136 73.462L302.14 73.47L302.86 73.12ZM307.54 80.44L308.142 79.9132L308.142 79.9132L307.54 80.44ZM318.34 87.16L318.138 87.9341L318.146 87.9361L318.34 87.16ZM323.74 88L323.702 88.7991L323.703 88.7992L323.74 88ZM339.1 86.2L338.759 85.4761L338.759 85.4761L339.1 86.2ZM345.58 81.4L346.194 81.9121L346.199 81.906L346.204 81.8998L345.58 81.4ZM348.94 75.04L349.709 75.2598L349.711 75.2527L348.94 75.04ZM348.34 61.48L349.049 61.1109L349.049 61.1109L348.34 61.48ZM344.38 56.44L343.845 57.0346L343.853 57.0422L343.862 57.0496L344.38 56.44ZM339.1 52.96L338.754 53.6818L338.766 53.6872L339.1 52.96ZM333.82 50.92L333.587 51.6854L333.6 51.6892L333.82 50.92ZM320.02 46.72L319.784 47.4844L319.787 47.4853L320.02 46.72ZM305.26 38.8L304.694 39.3657L304.701 39.3725L305.26 38.8ZM302.26 15.64L302.997 15.9505L303 15.9436L302.26 15.64ZM307.66 7.6L308.215 8.17552L308.215 8.17552L307.66 7.6ZM315.94 2.31999L315.649 1.57471L315.643 1.57721L315.94 2.31999ZM333.58 1.12L333.378 1.89413L333.386 1.89611L333.58 1.12ZM338.5 2.8L338.159 3.52385L338.177 3.53224L338.195 3.53974L338.5 2.8ZM342.1 4.36L341.764 5.08636L341.774 5.09098L341.785 5.09531L342.1 4.36ZM347.5 4.72L347.98 5.36L347.99 5.3525L347.999 5.34469L347.5 4.72ZM349.06 2.56V1.76H348.595L348.365 2.16309L349.06 2.56ZM350.74 2.56H351.54V1.76H350.74V2.56ZM350.74 24.28V25.08H351.54V24.28H350.74ZM349.3 24.28L348.511 24.4115L348.622 25.08H349.3V24.28ZM346.78 16L346.04 16.3046L346.045 16.3179L346.051 16.331L346.78 16ZM342.34 8.92L341.74 9.45005L341.746 9.4559L341.751 9.46164L342.34 8.92ZM335.62 3.99999L335.262 4.71554L335.275 4.72216L335.289 4.72829L335.62 3.99999ZM320.26 2.91999L320.422 3.7034L320.435 3.70074L320.447 3.69766L320.26 2.91999ZM313.78 5.56L313.348 4.88618L313.348 4.88618L313.78 5.56ZM308.74 10.6L308.07 10.1622L308.064 10.1714L308.058 10.1807L308.74 10.6ZM308.38 25.12L307.683 25.5136L307.687 25.5203L307.691 25.527L308.38 25.12ZM312.34 29.68L311.84 30.3047L311.857 30.3183L311.875 30.331L312.34 29.68ZM317.86 32.8L317.537 33.5323L317.555 33.5399L317.573 33.5467L317.86 32.8ZM324.1 34.96L324.339 34.1967L324.335 34.1954L324.1 34.96ZM338.62 39.52L338.861 38.7571L338.859 38.7568L338.62 39.52ZM344.38 41.44L344.119 42.1963L344.119 42.1963L344.38 41.44ZM351.1 45.04L350.623 45.6829L350.635 45.691L351.1 45.04ZM356.74 51.4L356.046 51.7992L356.051 51.807L356.056 51.8146L356.74 51.4ZM356.98 72.28L356.242 71.9711L356.238 71.9798L356.98 72.28ZM350.98 81.28L351.537 81.8544L351.545 81.8457L350.98 81.28ZM341.38 87.52L341.68 88.2617L341.686 88.259L341.693 88.2561L341.38 87.52ZM324.22 89.68L324.27 88.8816L324.245 88.88H324.22V89.68ZM320.62 89.44L320.733 88.648L320.733 88.648L320.62 89.44ZM317.26 88.84L317.427 88.0578L317.4 88.052L317.373 88.048L317.26 88.84ZM313.54 88L313.31 88.7663L313.314 88.7675L313.54 88ZM308.38 86.32L308.117 87.0756L308.117 87.0756L308.38 86.32ZM301.06 86.08L300.494 85.5143L300.468 85.54L300.445 85.5679L301.06 86.08ZM299.98 88V88.8H300.521L300.722 88.2971L299.98 88ZM298.18 88H297.38V88.8H298.18V88ZM298.18 63H299.5V61.4H298.18V63ZM298.716 62.3597C299.604 66.7202 300.74 70.4226 302.133 73.454L303.587 72.786C302.259 69.8974 301.155 66.3198 300.284 62.0403L298.716 62.3597ZM302.14 73.47C303.603 76.4764 305.2 78.9805 306.938 80.9668L308.142 79.9132C306.52 78.0595 304.996 75.6836 303.579 72.77L302.14 73.47ZM306.938 80.9668C308.665 82.9411 310.493 84.4839 312.426 85.5765L313.213 84.1835C311.466 83.1961 309.774 81.7789 308.142 79.9132L306.938 80.9668ZM312.426 85.5765C314.32 86.6468 316.224 87.4348 318.138 87.9341L318.542 86.3859C316.776 85.9252 315 85.1932 313.213 84.1835L312.426 85.5765ZM318.146 87.9361C320.108 88.4267 321.961 88.7162 323.702 88.7991L323.778 87.2009C322.159 87.1238 320.411 86.8533 318.534 86.3839L318.146 87.9361ZM323.703 88.7992C325.474 88.8796 327.126 88.92 328.66 88.92V87.32C327.154 87.32 325.526 87.2804 323.776 87.2008L323.703 88.7992ZM328.66 88.92C332.972 88.92 336.579 88.2702 339.44 86.9239L338.759 85.4761C336.18 86.6898 332.827 87.32 328.66 87.32V88.92ZM339.44 86.9239C342.245 85.6041 344.506 83.9382 346.194 81.9121L344.965 80.8879C343.453 82.7018 341.394 84.2359 338.759 85.4761L339.44 86.9239ZM346.204 81.8998C347.864 79.8252 349.037 77.6115 349.709 75.2598L348.17 74.8202C347.562 76.9485 346.495 78.9748 344.955 80.9002L346.204 81.8998ZM349.711 75.2527C350.365 72.8801 350.7 70.6874 350.7 68.68H349.1C349.1 70.5126 348.794 72.5599 348.168 74.8273L349.711 75.2527ZM350.7 68.68C350.7 65.7821 350.161 63.2492 349.049 61.1109L347.63 61.8491C348.598 63.7108 349.1 65.9779 349.1 68.68H350.7ZM349.049 61.1109C347.965 59.0259 346.582 57.2623 344.898 55.8304L343.862 57.0496C345.377 58.3377 346.634 59.9341 347.63 61.8491L349.049 61.1109ZM344.915 55.8454C343.256 54.3522 341.428 53.1471 339.433 52.2327L338.766 53.6872C340.611 54.5329 342.304 55.6477 343.845 57.0346L344.915 55.8454ZM339.445 52.2383C337.571 51.3421 335.769 50.6449 334.039 50.1508L333.6 51.6892C335.23 52.1551 336.948 52.8179 338.755 53.6817L339.445 52.2383ZM334.053 50.1547L320.253 45.9547L319.787 47.4853L333.587 51.6853L334.053 50.1547ZM320.256 45.9556C313.847 43.9775 309.056 41.3883 305.819 38.2275L304.701 39.3725C308.183 42.7717 313.233 45.4624 319.784 47.4844L320.256 45.9556ZM305.825 38.2343C302.723 35.1324 301.14 30.9511 301.14 25.6H299.54C299.54 31.2889 301.236 35.9076 304.694 39.3657L305.825 38.2343ZM301.14 25.6C301.14 22.0968 301.762 18.8835 302.997 15.9504L301.522 15.3295C300.197 18.4765 299.54 21.9032 299.54 25.6H301.14ZM303 15.9436C304.24 12.9213 305.979 10.3351 308.215 8.17552L307.104 7.02448C304.701 9.34487 302.84 12.1187 301.52 15.3363L303 15.9436ZM308.215 8.17552C310.456 6.01233 313.126 4.30697 316.237 3.06278L315.643 1.57721C312.353 2.89302 309.504 4.70767 307.104 7.02448L308.215 8.17552ZM316.231 3.06526C319.41 1.82458 322.87 1.2 326.62 1.2V-0.400002C322.689 -0.400002 319.03 0.255411 315.649 1.57473L316.231 3.06526ZM326.62 1.2C329.38 1.2 331.627 1.43731 333.378 1.89409L333.782 0.345902C331.853 -0.157314 329.459 -0.400002 326.62 -0.400002V1.2ZM333.386 1.89611C335.27 2.36721 336.858 2.91167 338.159 3.52385L338.84 2.07614C337.421 1.40832 335.729 0.832783 333.774 0.343881L333.386 1.89611ZM338.195 3.53974C339.548 4.09662 340.737 4.61213 341.764 5.08636L342.435 3.63363C341.382 3.14787 340.172 2.62338 338.804 2.06025L338.195 3.53974ZM341.785 5.09531C342.995 5.6142 344.222 5.87999 345.46 5.87999V4.27999C344.457 4.27999 343.444 4.06579 342.415 3.62468L341.785 5.09531ZM345.46 5.87999C346.005 5.87999 346.486 5.84888 346.889 5.77782C347.275 5.70971 347.671 5.59157 347.98 5.36L347.02 4.08C347.02 4.0795 346.994 4.09847 346.921 4.12479C346.85 4.15056 346.748 4.17788 346.611 4.20217C346.333 4.25111 345.954 4.27999 345.46 4.27999V5.87999ZM347.999 5.34469C348.533 4.91806 349.118 4.07044 349.754 2.95691L348.365 2.16309C347.721 3.28955 347.267 3.88193 347 4.0953L347.999 5.34469ZM349.06 3.36H350.74V1.76H349.06V3.36ZM349.94 2.56V24.28H351.54V2.56H349.94ZM350.74 23.48H349.3V25.08H350.74V23.48ZM350.089 24.1485C349.597 21.2001 348.737 18.373 347.508 15.669L346.051 16.331C347.222 18.907 348.042 21.5999 348.511 24.4115L350.089 24.1485ZM347.519 15.6954C346.366 12.8953 344.837 10.4534 342.928 8.37835L341.751 9.46164C343.522 11.3866 344.953 13.6647 346.04 16.3046L347.519 15.6954ZM342.939 8.38994C341.021 6.22203 338.688 4.5161 335.951 3.2717L335.289 4.72829C337.831 5.88388 339.978 7.45796 341.74 9.45005L342.939 8.38994ZM335.977 3.28445C333.286 1.93879 330.159 1.28 326.62 1.28V2.88C329.96 2.88 332.833 3.5012 335.262 4.71554L335.977 3.28445ZM326.62 1.28C324.623 1.28 322.439 1.57092 320.072 2.14233L320.447 3.69766C322.72 3.14907 324.776 2.88 326.62 2.88V1.28ZM320.098 2.13659C317.682 2.63643 315.431 3.55365 313.348 4.88618L314.211 6.23381C316.129 5.00635 318.198 4.16357 320.422 3.7034L320.098 2.13659ZM313.348 4.88618C311.249 6.22997 309.489 7.99207 308.07 10.1622L309.409 11.0378C310.71 9.04792 312.311 7.45003 314.211 6.23381L313.348 4.88618ZM308.058 10.1807C306.68 12.4203 306.02 15.2169 306.02 18.52H307.62C307.62 15.4231 308.239 12.9397 309.421 11.0193L308.058 10.1807ZM306.02 18.52C306.02 21.1889 306.562 23.5306 307.683 25.5136L309.076 24.7263C308.117 23.0294 307.62 20.9711 307.62 18.52H306.02ZM307.691 25.527C308.78 27.3706 310.164 28.9643 311.84 30.3047L312.839 29.0553C311.315 27.8357 310.059 26.3894 309.068 24.713L307.691 25.527ZM311.875 30.331C313.602 31.5647 315.49 32.6314 317.537 33.5323L318.182 32.0677C316.229 31.2086 314.437 30.1953 312.805 29.029L311.875 30.331ZM317.573 33.5467C319.669 34.3531 321.767 35.0791 323.864 35.7246L324.335 34.1954C322.273 33.5609 320.21 32.8469 318.147 32.0533L317.573 33.5467ZM323.86 35.7232L338.38 40.2832L338.859 38.7568L324.339 34.1967L323.86 35.7232ZM338.379 40.2829C339.89 40.76 341.802 41.3975 344.119 42.1963L344.64 40.6837C342.317 39.8825 340.39 39.24 338.861 38.7571L338.379 40.2829ZM344.119 42.1963C346.355 42.9673 348.523 44.1268 350.624 45.6828L351.576 44.3972C349.356 42.7532 347.045 41.5127 344.64 40.6837L344.119 42.1963ZM350.635 45.691C352.772 47.2176 354.577 49.2478 356.046 51.7992L357.433 51.0008C355.862 48.2722 353.907 46.0624 351.565 44.389L350.635 45.691ZM356.056 51.8146C357.559 54.2955 358.34 57.5004 358.34 61.48H359.94C359.94 57.2996 359.12 53.7845 357.424 50.9854L356.056 51.8146ZM358.34 61.48C358.34 65.1348 357.64 68.6298 356.242 71.9711L357.718 72.5889C359.199 69.0502 359.94 65.3452 359.94 61.48H358.34ZM356.238 71.9798C354.92 75.2374 352.981 78.1478 350.414 80.7143L351.545 81.8457C354.259 79.1322 356.32 76.0426 357.721 72.5802L356.238 71.9798ZM350.423 80.7057C347.861 83.19 344.746 85.2181 341.066 86.7839L341.693 88.2561C345.533 86.6219 348.819 84.49 351.537 81.8543L350.423 80.7057ZM341.08 86.7783C337.429 88.254 333.294 89 328.66 89V90.6C333.466 90.6 337.81 89.826 341.68 88.2617L341.08 86.7783ZM328.66 89C326.992 89 325.529 88.9603 324.27 88.8816L324.17 90.4784C325.471 90.5597 326.968 90.6 328.66 90.6V89ZM324.22 88.88C322.973 88.88 321.811 88.802 320.733 88.648L320.507 90.232C321.669 90.398 322.907 90.48 324.22 90.48V88.88ZM320.733 88.648C319.631 88.4907 318.529 88.2939 317.427 88.0578L317.092 89.6222C318.23 89.8661 319.368 90.0693 320.507 90.232L320.733 88.648ZM317.373 88.048C316.299 87.8946 315.097 87.6242 313.765 87.2325L313.314 88.7675C314.702 89.1758 315.98 89.4654 317.147 89.632L317.373 88.048ZM313.77 87.2337C312.182 86.7575 310.473 86.2012 308.643 85.5644L308.117 87.0756C309.966 87.7188 311.697 88.2825 313.31 88.7663L313.77 87.2337ZM308.643 85.5644C306.751 84.9066 305.059 84.56 303.58 84.56V86.16C304.821 86.16 306.328 86.4534 308.117 87.0756L308.643 85.5644ZM303.58 84.56C302.318 84.56 301.204 84.804 300.494 85.5143L301.625 86.6457C301.875 86.396 302.442 86.16 303.58 86.16V84.56ZM300.445 85.5679C299.975 86.1316 299.577 86.8522 299.237 87.7029L300.722 88.2971C301.022 87.5478 301.344 86.9884 301.674 86.5921L300.445 85.5679ZM299.98 87.2H298.18V88.8H299.98V87.2ZM298.98 88V62.2H297.38V88H298.98ZM383.379 4.11999L382.813 3.55431L382.813 3.55431L383.379 4.11999ZM392.379 4.11999L391.795 4.66715L391.813 4.68597L391.832 4.70362L392.379 4.11999ZM392.379 13.12L392.944 13.6857L392.944 13.6857L392.379 13.12ZM383.379 13.12L382.795 13.6672L382.813 13.686L382.832 13.7036L383.379 13.12ZM373.779 86.32V85.52H372.979V86.32H373.779ZM383.019 86.32V87.12H383.819V86.32H383.019ZM383.019 38.2H383.819V37.4H383.019V38.2ZM373.779 38.2H372.979V39H373.779V38.2ZM373.779 36.52V35.72H372.979V36.52H373.779ZM393.339 36.52H394.139V35.72H393.339V36.52ZM393.339 86.32H392.539V87.12H393.339V86.32ZM402.579 86.32H403.379V85.52H402.579V86.32ZM402.579 88V88.8H403.379V88H402.579ZM373.779 88H372.979V88.8H373.779V88ZM382.379 8.55999C382.379 7.00338 382.901 5.72955 383.944 4.68568L382.813 3.55431C381.457 4.91044 380.779 6.59661 380.779 8.55999H382.379ZM383.944 4.68568C385.079 3.55092 386.398 3 387.939 3V1.4C385.96 1.4 384.238 2.12907 382.813 3.55431L383.944 4.68568ZM387.939 3C389.478 3 390.747 3.54904 391.795 4.66715L392.962 3.57284C391.611 2.13095 389.919 1.4 387.939 1.4V3ZM391.832 4.70362C392.95 5.75185 393.499 7.02034 393.499 8.55999H395.099C395.099 6.57965 394.368 4.88814 392.926 3.53636L391.832 4.70362ZM393.499 8.55999C393.499 10.1011 392.948 11.4196 391.813 12.5543L392.944 13.6857C394.37 12.2604 395.099 10.5388 395.099 8.55999H393.499ZM391.813 12.5543C390.769 13.5982 389.495 14.12 387.939 14.12V15.72C389.902 15.72 391.588 15.0418 392.944 13.6857L391.813 12.5543ZM387.939 14.12C386.381 14.12 385.057 13.5969 383.926 12.5364L382.832 13.7036C384.26 15.0431 385.976 15.72 387.939 15.72V14.12ZM383.962 12.5728C382.902 11.4416 382.379 10.1175 382.379 8.55999H380.779C380.779 10.5225 381.456 12.2384 382.795 13.6672L383.962 12.5728ZM373.779 87.12H383.019V85.52H373.779V87.12ZM383.819 86.32V38.2H382.219V86.32H383.819ZM383.019 37.4H373.779V39H383.019V37.4ZM374.579 38.2V36.52H372.979V38.2H374.579ZM373.779 37.32H393.339V35.72H373.779V37.32ZM392.539 36.52V86.32H394.139V36.52H392.539ZM393.339 87.12H402.579V85.52H393.339V87.12ZM401.779 86.32V88H403.379V86.32H401.779ZM402.579 87.2H373.779V88.8H402.579V87.2ZM374.579 88V86.32H372.979V88H374.579ZM409.527 86.32V85.52H408.727V86.32H409.527ZM418.767 86.32V87.12H419.567V86.32H418.767ZM418.767 38.2H419.567V37.4H418.767V38.2ZM409.527 38.2H408.727V39H409.527V38.2ZM409.527 36.52V35.72H408.727V36.52H409.527ZM428.847 36.52H429.647V35.72H428.847V36.52ZM428.847 49.12H428.047V49.92H428.847V49.12ZM429.087 49.12V49.92H429.654L429.842 49.3843L429.087 49.12ZM436.287 38.56L435.828 37.9046L435.82 37.9101L436.287 38.56ZM458.367 37.84L457.966 38.5324L457.974 38.5368L458.367 37.84ZM464.487 46.6L463.708 46.7832L463.853 47.4H464.487V46.6ZM464.727 46.6V47.4H465.274L465.472 46.89L464.727 46.6ZM467.007 42.4L466.353 41.9386L466.353 41.9387L467.007 42.4ZM470.607 38.8L471.075 39.4485L471.087 39.4402L471.098 39.4315L470.607 38.8ZM475.647 36.16L475.403 35.398L475.394 35.4011L475.647 36.16ZM499.887 86.32H499.087V87.12H499.887V86.32ZM509.127 86.32H509.927V85.52H509.127V86.32ZM509.127 88V88.8H509.927V88H509.127ZM480.327 88H479.527V88.8H480.327V88ZM480.327 86.32V85.52H479.527V86.32H480.327ZM489.567 86.32V87.12H490.367V86.32H489.567ZM487.287 39.16L486.706 39.7102L486.713 39.718L486.721 39.7257L487.287 39.16ZM475.287 38.08L475.558 38.8327L475.571 38.828L475.584 38.8228L475.287 38.08ZM469.887 41.44L469.336 40.86L469.336 40.86L469.887 41.44ZM465.927 47.32L465.193 47.0019L465.188 47.0123L465.184 47.0229L465.927 47.32ZM464.487 86.32H463.687V87.12H464.487V86.32ZM473.727 86.32H474.527V85.52H473.727V86.32ZM473.727 88V88.8H474.527V88H473.727ZM444.927 88H444.127V88.8H444.927V88ZM444.927 86.32V85.52H444.127V86.32H444.927ZM454.167 86.32V87.12H454.967V86.32H454.167ZM452.007 39.4L452.614 38.8794L452.614 38.8794L452.007 39.4ZM440.727 38.2L441.024 38.9428L441.036 38.9377L441.049 38.9322L440.727 38.2ZM435.087 42.16L434.508 41.607L434.508 41.6076L435.087 42.16ZM430.767 49.12L430.028 48.8123L430.024 48.8211L430.021 48.83L430.767 49.12ZM429.087 86.32H428.287V87.12H429.087V86.32ZM438.327 86.32H439.127V85.52H438.327V86.32ZM438.327 88V88.8H439.127V88H438.327ZM409.527 88H408.727V88.8H409.527V88ZM409.527 87.12H418.767V85.52H409.527V87.12ZM419.567 86.32V38.2H417.967V86.32H419.567ZM418.767 37.4H409.527V39H418.767V37.4ZM410.327 38.2V36.52H408.727V38.2H410.327ZM409.527 37.32H428.847V35.72H409.527V37.32ZM428.047 36.52V49.12H429.647V36.52H428.047ZM428.847 49.92H429.087V48.32H428.847V49.92ZM429.842 49.3843C431.485 44.6897 433.804 41.3273 436.753 39.2099L435.82 37.9101C432.529 40.2727 430.048 43.9503 428.332 48.8557L429.842 49.3843ZM436.745 39.2154C439.792 37.0829 443.466 36 447.807 36V34.4C443.187 34.4 439.181 35.5571 435.828 37.9046L436.745 39.2154ZM447.807 36C451.686 36 455.064 36.8522 457.966 38.5323L458.767 37.1477C455.589 35.3078 451.927 34.4 447.807 34.4V36ZM457.974 38.5368C460.865 40.1681 462.79 42.8803 463.708 46.7832L465.265 46.4168C464.264 42.1597 462.108 39.0319 458.76 37.1432L457.974 38.5368ZM464.487 47.4H464.727V45.8H464.487V47.4ZM465.472 46.89C466.007 45.5151 466.735 44.1723 467.66 42.8613L466.353 41.9387C465.358 43.3477 464.566 44.8049 463.981 46.31L465.472 46.89ZM467.66 42.8613C468.566 41.5782 469.702 40.4403 471.075 39.4485L470.138 38.1515C468.631 39.2397 467.367 40.5017 466.353 41.9386L467.66 42.8613ZM471.098 39.4315C472.459 38.3729 474.056 37.5334 475.9 36.9189L475.394 35.4011C473.397 36.0666 471.634 36.9871 470.115 38.1685L471.098 39.4315ZM475.89 36.9219C477.799 36.3112 479.955 36 482.367 36V34.4C479.818 34.4 477.494 34.7288 475.403 35.3981L475.89 36.9219ZM482.367 36C488.079 36 492.217 37.4564 494.935 40.2299C497.656 43.0064 499.087 47.2393 499.087 53.08H500.687C500.687 47.0007 499.197 42.2935 496.078 39.1101C492.956 35.9236 488.334 34.4 482.367 34.4V36ZM499.087 53.08V86.32H500.687V53.08H499.087ZM499.887 87.12H509.127V85.52H499.887V87.12ZM508.327 86.32V88H509.927V86.32H508.327ZM509.127 87.2H480.327V88.8H509.127V87.2ZM481.127 88V86.32H479.527V88H481.127ZM480.327 87.12H489.567V85.52H480.327V87.12ZM490.367 86.32V45.52H488.767V86.32H490.367ZM490.367 45.52C490.367 42.6471 489.56 40.3016 487.852 38.5943L486.721 39.7257C488.054 41.0584 488.767 42.9529 488.767 45.52H490.367ZM487.867 38.6098C486.244 36.8959 484.014 36.08 481.287 36.08V37.68C483.679 37.68 485.45 38.3841 486.706 39.7102L487.867 38.6098ZM481.287 36.08C479.177 36.08 477.077 36.5024 474.989 37.3372L475.584 38.8228C477.497 38.0576 479.396 37.68 481.287 37.68V36.08ZM475.016 37.3273C472.907 38.0863 471.013 39.2666 469.336 40.86L470.438 42.02C471.96 40.5734 473.666 39.5137 475.558 38.8327L475.016 37.3273ZM469.336 40.86C467.645 42.4665 466.268 44.5212 465.193 47.0019L466.661 47.6381C467.666 45.3188 468.929 43.4535 470.438 42.02L469.336 40.86ZM465.184 47.0229C464.178 49.5369 463.687 52.4416 463.687 55.72H465.287C465.287 52.5984 465.755 49.9031 466.669 47.6171L465.184 47.0229ZM463.687 55.72V86.32H465.287V55.72H463.687ZM464.487 87.12H473.727V85.52H464.487V87.12ZM472.927 86.32V88H474.527V86.32H472.927ZM473.727 87.2H444.927V88.8H473.727V87.2ZM445.727 88V86.32H444.127V88H445.727ZM444.927 87.12H454.167V85.52H444.927V87.12ZM454.967 86.32V47.2H453.367V86.32H454.967ZM454.967 47.2C454.967 43.5955 454.233 40.7687 452.614 38.8794L451.399 39.9206C452.66 41.3913 453.367 43.7645 453.367 47.2H454.967ZM452.614 38.8794C451.008 37.0057 448.858 36.08 446.247 36.08V37.68C448.435 37.68 450.125 38.4343 451.399 39.9206L452.614 38.8794ZM446.247 36.08C444.428 36.08 442.477 36.5559 440.404 37.4677L441.049 38.9322C442.976 38.0841 444.706 37.68 446.247 37.68V36.08ZM440.429 37.4572C438.306 38.3067 436.333 39.6993 434.508 41.607L435.665 42.713C437.36 40.9407 439.147 39.6933 441.024 38.9428L440.429 37.4572ZM434.508 41.6076C432.744 43.4556 431.256 45.8661 430.028 48.8123L431.505 49.4277C432.677 46.6139 434.069 44.3844 435.665 42.7124L434.508 41.6076ZM430.021 48.83C428.855 51.8284 428.287 55.4531 428.287 59.68H429.887C429.887 55.5869 430.438 52.1716 431.512 49.41L430.021 48.83ZM428.287 59.68V86.32H429.887V59.68H428.287ZM429.087 87.12H438.327V85.52H429.087V87.12ZM437.527 86.32V88H439.127V86.32H437.527ZM438.327 87.2H409.527V88.8H438.327V87.2ZM410.327 88V86.32H408.727V88H410.327ZM531.461 75.88L530.687 76.0827L530.687 76.0827L531.461 75.88ZM534.941 83.68L534.311 84.173L534.316 84.1799L534.321 84.1866L534.941 83.68ZM552.221 87.16L552.445 87.928L552.445 87.928L552.221 87.16ZM557.261 83.68L557.88 84.1866L557.885 84.1799L557.891 84.173L557.261 83.68ZM560.741 75.88L559.967 75.6773L559.967 75.6773L560.741 75.88ZM561.101 50.32L560.315 50.4732L560.316 50.4769L561.101 50.32ZM558.101 42.4L557.419 42.8193L557.429 42.8348L557.439 42.8498L558.101 42.4ZM533.981 42.4L533.311 41.9622L533.307 41.9688L533.981 42.4ZM531.101 50.32L531.885 50.4769L531.886 50.4732L531.101 50.32ZM520.661 51.4L519.952 51.0288L519.948 51.0355L519.945 51.0422L520.661 51.4ZM527.261 42.76L527.799 43.352L527.8 43.3512L527.261 42.76ZM536.261 37L535.96 36.2584L535.954 36.261L536.261 37ZM555.821 37L555.514 37.739L555.52 37.7416L555.821 37ZM564.821 42.76L564.273 43.3431L564.282 43.3516L564.291 43.3599L564.821 42.76ZM571.421 51.4L570.705 51.7578L570.708 51.7645L570.712 51.7712L571.421 51.4ZM571.661 73L572.38 73.3508L572.383 73.3439L571.661 73ZM565.301 81.64L564.753 81.0569L564.744 81.0654L565.301 81.64ZM556.421 87.52L556.736 88.2553L556.421 87.52ZM535.781 87.52L535.465 88.2553L535.465 88.2553L535.781 87.52ZM526.781 81.64L526.224 82.2147L526.233 82.2231L526.781 81.64ZM520.541 73L519.818 73.344L519.822 73.3507L520.541 73ZM529.341 62.32C529.341 68.031 529.782 72.6281 530.687 76.0827L532.234 75.6773C531.379 72.4119 530.941 67.969 530.941 62.32H529.341ZM530.687 76.0827C531.582 79.5015 532.779 82.2158 534.311 84.173L535.571 83.187C534.222 81.4642 533.099 78.9785 532.234 75.6773L530.687 76.0827ZM534.321 84.1866C535.849 86.0539 537.661 87.3167 539.757 87.928L540.205 86.392C538.46 85.8833 536.912 84.8261 535.56 83.1734L534.321 84.1866ZM539.757 87.928C541.755 88.5109 543.871 88.8 546.101 88.8V87.2C544.01 87.2 542.046 86.9291 540.205 86.392L539.757 87.928ZM546.101 88.8C548.33 88.8 550.446 88.5109 552.445 87.928L551.997 86.392C550.155 86.9291 548.191 87.2 546.101 87.2V88.8ZM552.445 87.928C554.54 87.3167 556.352 86.0539 557.88 84.1866L556.641 83.1734C555.289 84.8261 553.741 85.8833 551.997 86.392L552.445 87.928ZM557.891 84.173C559.422 82.2158 560.619 79.5015 561.514 76.0827L559.967 75.6773C559.102 78.9785 557.979 81.4642 556.631 83.187L557.891 84.173ZM561.514 76.0827C562.419 72.6281 562.861 68.031 562.861 62.32H561.261C561.261 67.969 560.822 72.4119 559.967 75.6773L561.514 76.0827ZM562.861 62.32C562.861 57.4895 562.539 53.4327 561.885 50.1631L560.316 50.4769C560.942 53.6073 561.261 57.5505 561.261 62.32H562.861ZM561.886 50.1668C561.232 46.8185 560.202 44.0669 558.762 41.9501L557.439 42.8498C558.72 44.7331 559.689 47.2615 560.315 50.4732L561.886 50.1668ZM558.782 41.9807C557.427 39.7793 555.669 38.1808 553.503 37.2277L552.858 38.6922C554.692 39.4992 556.214 40.8607 557.419 42.8193L558.782 41.9807ZM553.503 37.2277C551.38 36.2936 548.905 35.84 546.101 35.84V37.44C548.736 37.44 550.982 37.8664 552.858 38.6922L553.503 37.2277ZM546.101 35.84C543.296 35.84 540.822 36.2936 538.698 37.2277L539.343 38.6922C541.22 37.8664 543.465 37.44 546.101 37.44V35.84ZM538.698 37.2277C536.538 38.1784 534.744 39.7708 533.311 41.9622L534.65 42.8378C535.937 40.8692 537.503 39.5016 539.343 38.6922L538.698 37.2277ZM533.307 41.9688C531.955 44.0806 530.967 46.8252 530.315 50.1668L531.886 50.4732C532.514 47.2548 533.446 44.7194 534.654 42.8312L533.307 41.9688ZM530.316 50.1631C529.662 53.4327 529.341 57.4895 529.341 62.32H530.941C530.941 57.5505 531.259 53.6073 531.885 50.4769L530.316 50.1631ZM518.941 62.32C518.941 58.5186 519.754 55.0018 521.376 51.7578L519.945 51.0422C518.207 54.5182 517.341 58.2814 517.341 62.32H518.941ZM521.369 51.7712C523.089 48.4889 525.232 45.685 527.799 43.352L526.722 42.168C524.009 44.635 521.753 47.5911 519.952 51.0288L521.369 51.7712ZM527.8 43.3512C530.454 40.9312 533.376 39.0622 536.567 37.739L535.954 36.261C532.586 37.6577 529.507 39.6288 526.722 42.1688L527.8 43.3512ZM536.561 37.7416C539.838 36.4151 543.016 35.76 546.101 35.76V34.16C542.785 34.16 539.403 34.8649 535.96 36.2584L536.561 37.7416ZM546.101 35.76C549.184 35.76 552.321 36.4148 555.514 37.739L556.127 36.261C552.761 34.8651 549.417 34.16 546.101 34.16V35.76ZM555.52 37.7416C558.789 39.0645 561.705 40.9308 564.273 43.3431L565.368 42.1769C562.656 39.6292 559.572 37.6555 556.121 36.2584L555.52 37.7416ZM564.291 43.3599C566.932 45.6895 569.069 48.4863 570.705 51.7578L572.136 51.0422C570.412 47.5937 568.15 44.6305 565.35 42.1601L564.291 43.3599ZM570.712 51.7712C572.41 55.0128 573.261 58.5248 573.261 62.32H574.861C574.861 58.2752 573.951 54.5072 572.129 51.0288L570.712 51.7712ZM573.261 62.32C573.261 65.9623 572.487 69.4046 570.938 72.6561L572.383 73.3439C574.035 69.8754 574.861 66.1977 574.861 62.32H573.261ZM570.942 72.6493C569.384 75.8427 567.322 78.6439 564.753 81.0569L565.848 82.2231C568.56 79.6761 570.737 76.7173 572.38 73.3507L570.942 72.6493ZM564.744 81.0654C562.256 83.4758 559.378 85.3821 556.105 86.7847L556.736 88.2553C560.183 86.7779 563.225 84.7642 565.857 82.2146L564.744 81.0654ZM556.105 86.7847C552.841 88.1837 549.508 88.88 546.101 88.88V90.48C549.733 90.48 553.28 89.7363 556.736 88.2553L556.105 86.7847ZM546.101 88.88C542.693 88.88 539.36 88.1837 536.096 86.7847L535.465 88.2553C538.921 89.7363 542.468 90.48 546.101 90.48V88.88ZM536.096 86.7847C532.821 85.3811 529.9 83.4724 527.328 81.0569L526.233 82.2231C528.942 84.7676 532.02 86.7789 535.465 88.2553L536.096 86.7847ZM527.337 81.0654C524.846 78.6516 522.82 75.8478 521.26 72.6493L519.822 73.3507C521.461 76.7122 523.596 79.6684 526.224 82.2146L527.337 81.0654ZM521.263 72.6561C519.715 69.4046 518.941 65.9623 518.941 62.32H517.341C517.341 66.1977 518.167 69.8754 519.818 73.3439L521.263 72.6561ZM583.62 86.32V85.52H582.82V86.32H583.62ZM592.86 86.32V87.12H593.66V86.32H592.86ZM592.86 38.2H593.66V37.4H592.86V38.2ZM583.62 38.2H582.82V39H583.62V38.2ZM583.62 36.52V35.72H582.82V36.52H583.62ZM602.94 36.52H603.74V35.72H602.94V36.52ZM602.94 49.36H602.14V50.16H602.94V49.36ZM603.18 49.36V50.16H603.692L603.907 49.6952L603.18 49.36ZM605.22 45.4L604.534 44.9884L604.527 45.0013L604.519 45.0145L605.22 45.4ZM609.06 40.72L609.611 41.3L609.611 41.3L609.06 40.72ZM615.06 36.88L615.378 37.614L615.389 37.6096L615.399 37.6049L615.06 36.88ZM636.66 39.04L636.168 39.6707L636.175 39.6763L636.66 39.04ZM641.7 86.32H640.9V87.12H641.7V86.32ZM650.94 86.32H651.74V85.52H650.94V86.32ZM650.94 88V88.8H651.74V88H650.94ZM622.14 88H621.34V88.8H622.14V88ZM622.14 86.32V85.52H621.34V86.32H622.14ZM631.38 86.32V87.12H632.18V86.32H631.38ZM629.1 39.88L628.451 40.3474L628.457 40.3558L628.463 40.3641L629.1 39.88ZM608.82 43.24L609.421 43.7685L609.421 43.7685L608.82 43.24ZM604.62 50.32L603.873 50.0343L603.869 50.044L603.866 50.0537L604.62 50.32ZM603.18 86.32H602.38V87.12H603.18V86.32ZM612.42 86.32H613.22V85.52H612.42V86.32ZM612.42 88V88.8H613.22V88H612.42ZM583.62 88H582.82V88.8H583.62V88ZM583.62 87.12H592.86V85.52H583.62V87.12ZM593.66 86.32V38.2H592.06V86.32H593.66ZM592.86 37.4H583.62V39H592.86V37.4ZM584.42 38.2V36.52H582.82V38.2H584.42ZM583.62 37.32H602.94V35.72H583.62V37.32ZM602.14 36.52V49.36H603.74V36.52H602.14ZM602.94 50.16H603.18V48.56H602.94V50.16ZM603.907 49.6952C604.376 48.6792 605.046 47.3775 605.921 45.7855L604.519 45.0145C603.635 46.6225 602.945 47.9608 602.454 49.0247L603.907 49.6952ZM605.906 45.8116C606.823 44.2836 608.054 42.779 609.611 41.3L608.509 40.14C606.866 41.701 605.538 43.3163 604.534 44.9884L605.906 45.8116ZM609.611 41.3C611.132 39.8553 613.049 38.6235 615.378 37.614L614.742 36.146C612.272 37.2165 610.189 38.5447 608.509 40.14L609.611 41.3ZM615.399 37.6049C617.666 36.5468 620.464 36 623.82 36V34.4C620.297 34.4 617.255 34.9732 614.722 36.155L615.399 37.6049ZM623.82 36C628.971 36 633.063 37.247 636.168 39.6706L637.153 38.4093C633.698 35.713 629.23 34.4 623.82 34.4V36ZM636.175 39.6763C639.276 42.0386 640.9 45.8415 640.9 51.28H642.5C642.5 45.5185 640.765 41.1614 637.145 38.4037L636.175 39.6763ZM640.9 51.28V86.32H642.5V51.28H640.9ZM641.7 87.12H650.94V85.52H641.7V87.12ZM650.14 86.32V88H651.74V86.32H650.14ZM650.94 87.2H622.14V88.8H650.94V87.2ZM622.94 88V86.32H621.34V88H622.94ZM622.14 87.12H631.38V85.52H622.14V87.12ZM632.18 86.32V47.56H630.58V86.32H632.18ZM632.18 47.56C632.18 44.3083 631.386 41.5659 629.737 39.3959L628.463 40.3641C629.854 42.1941 630.58 44.5717 630.58 47.56H632.18ZM629.75 39.4126C628.12 37.1488 625.561 36.08 622.26 36.08V37.68C625.199 37.68 627.201 38.6112 628.451 40.3474L629.75 39.4126ZM622.26 36.08C619.579 36.08 617.02 36.6675 614.593 37.8396L615.288 39.2804C617.5 38.2125 619.822 37.68 622.26 37.68V36.08ZM614.593 37.8396C612.173 39.0076 610.048 40.6341 608.22 42.7115L609.421 43.7685C611.113 41.8459 613.068 40.3524 615.288 39.2804L614.593 37.8396ZM608.22 42.7115C606.391 44.7894 604.944 47.2336 603.873 50.0343L605.368 50.6057C606.377 47.9664 607.729 45.6906 609.421 43.7685L608.22 42.7115ZM603.866 50.0537C602.873 52.8681 602.38 55.9192 602.38 59.2H603.98C603.98 56.0808 604.448 53.2119 605.375 50.5863L603.866 50.0537ZM602.38 59.2V86.32H603.98V59.2H602.38ZM603.18 87.12H612.42V85.52H603.18V87.12ZM611.62 86.32V88H613.22V86.32H611.62ZM612.42 87.2H583.62V88.8H612.42V87.2ZM584.42 88V86.32H582.82V88H584.42Z" fill="black"/>
</svg>
