<svg width="642" height="123" viewBox="0 0 642 123" fill="none" xmlns="http://www.w3.org/2000/svg">
<path d="M39.7003 16.36L26.5003 51.28H52.9003L39.7003 16.36ZM0.700312 86.32H11.2603L43.6603 0.399998H46.5403L79.1803 86.32H89.8603V88H52.9003V86.32H66.2203L53.6203 52.96H25.7803L13.1803 86.32H26.5003V88H0.700312V86.32ZM92.1656 86.32H101.406V38.2H92.1656V36.52H111.486V49.12H111.726C113.406 44.32 115.806 40.8 118.926 38.56C122.126 36.32 125.966 35.2 130.446 35.2C134.446 35.2 137.966 36.08 141.006 37.84C144.126 39.6 146.166 42.52 147.126 46.6H147.366C147.926 45.16 148.686 43.76 149.646 42.4C150.606 41.04 151.806 39.84 153.246 38.8C154.686 37.68 156.366 36.8 158.286 36.16C160.286 35.52 162.526 35.2 165.006 35.2C176.686 35.2 182.526 41.16 182.526 53.08V86.32H191.766V88H162.966V86.32H172.206V45.52C172.206 42.8 171.446 40.68 169.926 39.16C168.486 37.64 166.486 36.88 163.926 36.88C161.926 36.88 159.926 37.28 157.926 38.08C155.926 38.8 154.126 39.92 152.526 41.44C150.926 42.96 149.606 44.92 148.566 47.32C147.606 49.72 147.126 52.52 147.126 55.72V86.32H156.366V88H127.566V86.32H136.806V47.2C136.806 43.68 136.086 41.08 134.646 39.4C133.206 37.72 131.286 36.88 128.886 36.88C127.206 36.88 125.366 37.32 123.366 38.2C121.366 39 119.486 40.32 117.726 42.16C116.046 43.92 114.606 46.24 113.406 49.12C112.286 52 111.726 55.52 111.726 59.68V86.32H120.966V88H92.1656V86.32ZM192.408 36.52H221.808V38.2H211.728L227.208 75.88L243.408 38.2H233.448V36.52H251.808V38.2H245.328L225.528 84.52C224.008 87.96 222.568 91.4 221.208 94.84C219.848 98.36 218.488 101.88 217.128 105.4C216.008 108.28 214.888 110.8 213.768 112.96C212.648 115.12 211.448 116.88 210.168 118.24C208.968 119.6 207.648 120.6 206.208 121.24C204.768 121.96 203.088 122.32 201.168 122.32C198.848 122.32 196.968 121.96 195.528 121.24C194.168 120.52 193.088 119.68 192.288 118.72C191.488 117.76 190.968 116.76 190.728 115.72C190.488 114.68 190.368 113.8 190.368 113.08C190.368 111.08 190.928 109.56 192.048 108.52C193.168 107.56 194.528 107.08 196.128 107.08C196.688 107.08 197.288 107.12 197.928 107.2C198.568 107.36 199.168 107.6 199.728 107.92C200.288 108.24 200.768 108.68 201.168 109.24C201.568 109.8 201.768 110.48 201.768 111.28C201.768 112.4 201.408 113.44 200.688 114.4C200.048 115.44 199.728 116.56 199.728 117.76C199.728 118.8 200.008 119.48 200.568 119.8C201.128 120.12 201.888 120.28 202.848 120.28C204.128 120.28 205.288 119.96 206.328 119.32C207.448 118.76 208.528 117.8 209.568 116.44C210.608 115.08 211.648 113.28 212.688 111.04C213.728 108.88 214.888 106.2 216.168 103L221.448 89.56L200.688 38.2H192.408V36.52ZM293.18 62.2H294.5C295.38 66.52 296.5 70.16 297.86 73.12C299.3 76.08 300.86 78.52 302.54 80.44C304.22 82.36 305.98 83.84 307.82 84.88C309.66 85.92 311.5 86.68 313.34 87.16C315.26 87.64 317.06 87.92 318.74 88C320.5 88.08 322.14 88.12 323.66 88.12C327.9 88.12 331.38 87.48 334.1 86.2C336.82 84.92 338.98 83.32 340.58 81.4C342.18 79.4 343.3 77.28 343.94 75.04C344.58 72.72 344.9 70.6 344.9 68.68C344.9 65.88 344.38 63.48 343.34 61.48C342.3 59.48 340.98 57.8 339.38 56.44C337.78 55 336.02 53.84 334.1 52.96C332.26 52.08 330.5 51.4 328.82 50.92L315.02 46.72C308.54 44.72 303.62 42.08 300.26 38.8C296.98 35.52 295.34 31.12 295.34 25.6C295.34 22 295.98 18.68 297.26 15.64C298.54 12.52 300.34 9.84 302.66 7.6C304.98 5.36 307.74 3.6 310.94 2.31999C314.22 1.04 317.78 0.399998 321.62 0.399998C324.42 0.399998 326.74 0.639997 328.58 1.12C330.5 1.59999 332.14 2.15999 333.5 2.8C334.86 3.36 336.06 3.88 337.1 4.36C338.22 4.84 339.34 5.07999 340.46 5.07999C341.5 5.07999 342.18 4.96 342.5 4.72C342.9 4.4 343.42 3.68 344.06 2.56H345.74V24.28H344.3C343.82 21.4 342.98 18.64 341.78 16C340.66 13.28 339.18 10.92 337.34 8.92C335.5 6.83999 333.26 5.19999 330.62 3.99999C328.06 2.72 325.06 2.08 321.62 2.08C319.7 2.08 317.58 2.36 315.26 2.91999C312.94 3.4 310.78 4.28 308.78 5.56C306.78 6.84 305.1 8.52 303.74 10.6C302.46 12.68 301.82 15.32 301.82 18.52C301.82 21.08 302.34 23.28 303.38 25.12C304.42 26.88 305.74 28.4 307.34 29.68C309.02 30.88 310.86 31.92 312.86 32.8C314.94 33.6 317.02 34.32 319.1 34.96L333.62 39.52C335.14 40 337.06 40.64 339.38 41.44C341.7 42.24 343.94 43.44 346.1 45.04C348.34 46.64 350.22 48.76 351.74 51.4C353.34 54.04 354.14 57.4 354.14 61.48C354.14 65.24 353.42 68.84 351.98 72.28C350.62 75.64 348.62 78.64 345.98 81.28C343.34 83.84 340.14 85.92 336.38 87.52C332.62 89.04 328.38 89.8 323.66 89.8C321.98 89.8 320.5 89.76 319.22 89.68C317.94 89.68 316.74 89.6 315.62 89.44C314.5 89.28 313.38 89.08 312.26 88.84C311.14 88.68 309.9 88.4 308.54 88C306.94 87.52 305.22 86.96 303.38 86.32C301.54 85.68 299.94 85.36 298.58 85.36C297.38 85.36 296.54 85.6 296.06 86.08C295.66 86.56 295.3 87.2 294.98 88H293.18V62.2ZM375.379 8.55999C375.379 6.8 375.979 5.32 377.179 4.11999C378.459 2.83999 379.979 2.2 381.739 2.2C383.499 2.2 384.979 2.83999 386.179 4.11999C387.459 5.32 388.099 6.8 388.099 8.55999C388.099 10.32 387.459 11.84 386.179 13.12C384.979 14.32 383.499 14.92 381.739 14.92C379.979 14.92 378.459 14.32 377.179 13.12C375.979 11.84 375.379 10.32 375.379 8.55999ZM367.579 86.32H376.819V38.2H367.579V36.52H387.139V86.32H396.379V88H367.579V86.32ZM402.127 86.32H411.367V38.2H402.127V36.52H421.447V49.12H421.687C423.367 44.32 425.767 40.8 428.887 38.56C432.087 36.32 435.927 35.2 440.407 35.2C444.407 35.2 447.927 36.08 450.967 37.84C454.087 39.6 456.127 42.52 457.087 46.6H457.327C457.887 45.16 458.647 43.76 459.607 42.4C460.567 41.04 461.767 39.84 463.207 38.8C464.647 37.68 466.327 36.8 468.247 36.16C470.247 35.52 472.487 35.2 474.967 35.2C486.647 35.2 492.487 41.16 492.487 53.08V86.32H501.727V88H472.927V86.32H482.167V45.52C482.167 42.8 481.407 40.68 479.887 39.16C478.447 37.64 476.447 36.88 473.887 36.88C471.887 36.88 469.887 37.28 467.887 38.08C465.887 38.8 464.087 39.92 462.487 41.44C460.887 42.96 459.567 44.92 458.527 47.32C457.567 49.72 457.087 52.52 457.087 55.72V86.32H466.327V88H437.527V86.32H446.767V47.2C446.767 43.68 446.047 41.08 444.607 39.4C443.167 37.72 441.247 36.88 438.847 36.88C437.167 36.88 435.327 37.32 433.327 38.2C431.327 39 429.447 40.32 427.687 42.16C426.007 43.92 424.567 46.24 423.367 49.12C422.247 52 421.687 55.52 421.687 59.68V86.32H430.927V88H402.127V86.32ZM521.541 62.32C521.541 68 521.981 72.52 522.861 75.88C523.741 79.24 524.901 81.84 526.341 83.68C527.781 85.44 529.461 86.6 531.381 87.16C533.301 87.72 535.341 88 537.501 88C539.661 88 541.701 87.72 543.621 87.16C545.541 86.6 547.221 85.44 548.661 83.68C550.101 81.84 551.261 79.24 552.141 75.88C553.021 72.52 553.461 68 553.461 62.32C553.461 57.52 553.141 53.52 552.501 50.32C551.861 47.04 550.861 44.4 549.501 42.4C548.221 40.32 546.581 38.84 544.581 37.96C542.581 37.08 540.221 36.64 537.501 36.64C534.781 36.64 532.421 37.08 530.421 37.96C528.421 38.84 526.741 40.32 525.381 42.4C524.101 44.4 523.141 47.04 522.501 50.32C521.861 53.52 521.541 57.52 521.541 62.32ZM509.541 62.32C509.541 58.4 510.381 54.76 512.061 51.4C513.821 48.04 516.021 45.16 518.661 42.76C521.381 40.28 524.381 38.36 527.661 37C531.021 35.64 534.301 34.96 537.501 34.96C540.701 34.96 543.941 35.64 547.221 37C550.581 38.36 553.581 40.28 556.221 42.76C558.941 45.16 561.141 48.04 562.821 51.4C564.581 54.76 565.461 58.4 565.461 62.32C565.461 66.08 564.661 69.64 563.061 73C561.461 76.28 559.341 79.16 556.701 81.64C554.141 84.12 551.181 86.08 547.821 87.52C544.461 88.96 541.021 89.68 537.501 89.68C533.981 89.68 530.541 88.96 527.181 87.52C523.821 86.08 520.821 84.12 518.181 81.64C515.621 79.16 513.541 76.28 511.941 73C510.341 69.64 509.541 66.08 509.541 62.32ZM573.82 86.32H583.06V38.2H573.82V36.52H593.14V49.36H593.38C593.86 48.32 594.54 47 595.42 45.4C596.38 43.8 597.66 42.24 599.26 40.72C600.86 39.2 602.86 37.92 605.26 36.88C607.66 35.76 610.58 35.2 614.02 35.2C619.3 35.2 623.58 36.48 626.86 39.04C630.22 41.6 631.9 45.68 631.9 51.28V86.32H641.14V88H612.34V86.32H621.58V47.56C621.58 44.44 620.82 41.88 619.3 39.88C617.86 37.88 615.58 36.88 612.46 36.88C609.9 36.88 607.46 37.44 605.14 38.56C602.82 39.68 600.78 41.24 599.02 43.24C597.26 45.24 595.86 47.6 594.82 50.32C593.86 53.04 593.38 56 593.38 59.2V86.32H602.62V88H573.82V86.32Z" fill="black"/>
</svg>
