<svg width="639" height="123" viewBox="0 0 639 123" fill="none" xmlns="http://www.w3.org/2000/svg">
<path d="M39.9003 16.36L26.7003 51.28H53.1003L39.9003 16.36ZM0.900325 86.32H11.4603L43.8603 0.399998H46.7403L79.3803 86.32H90.0603V88H53.1003V86.32H66.4203L53.8203 52.96H25.9803L13.3803 86.32H26.7003V88H0.900325V86.32ZM93.5656 86.32H102.806V38.2H93.5656V36.52H112.886V49.12H113.126C114.806 44.32 117.206 40.8 120.326 38.56C123.526 36.32 127.366 35.2 131.846 35.2C135.846 35.2 139.366 36.08 142.406 37.84C145.526 39.6 147.566 42.52 148.526 46.6H148.766C149.326 45.16 150.086 43.76 151.046 42.4C152.006 41.04 153.206 39.84 154.646 38.8C156.086 37.68 157.766 36.8 159.686 36.16C161.686 35.52 163.926 35.2 166.406 35.2C178.086 35.2 183.926 41.16 183.926 53.08V86.32H193.166V88H164.366V86.32H173.606V45.52C173.606 42.8 172.846 40.68 171.326 39.16C169.886 37.64 167.886 36.88 165.326 36.88C163.326 36.88 161.326 37.28 159.326 38.08C157.326 38.8 155.526 39.92 153.926 41.44C152.326 42.96 151.006 44.92 149.966 47.32C149.006 49.72 148.526 52.52 148.526 55.72V86.32H157.766V88H128.966V86.32H138.206V47.2C138.206 43.68 137.486 41.08 136.046 39.4C134.606 37.72 132.686 36.88 130.286 36.88C128.606 36.88 126.766 37.32 124.766 38.2C122.766 39 120.886 40.32 119.126 42.16C117.446 43.92 116.006 46.24 114.806 49.12C113.686 52 113.126 55.52 113.126 59.68V86.32H122.366V88H93.5656V86.32ZM192.608 36.52H222.008V38.2H211.928L227.408 75.88L243.608 38.2H233.648V36.52H252.008V38.2H245.528L225.728 84.52C224.208 87.96 222.768 91.4 221.408 94.84C220.048 98.36 218.688 101.88 217.328 105.4C216.208 108.28 215.088 110.8 213.968 112.96C212.848 115.12 211.648 116.88 210.368 118.24C209.168 119.6 207.848 120.6 206.408 121.24C204.968 121.96 203.288 122.32 201.368 122.32C199.048 122.32 197.168 121.96 195.728 121.24C194.368 120.52 193.288 119.68 192.488 118.72C191.688 117.76 191.168 116.76 190.928 115.72C190.688 114.68 190.568 113.8 190.568 113.08C190.568 111.08 191.128 109.56 192.248 108.52C193.368 107.56 194.728 107.08 196.328 107.08C196.888 107.08 197.488 107.12 198.128 107.2C198.768 107.36 199.368 107.6 199.928 107.92C200.488 108.24 200.968 108.68 201.368 109.24C201.768 109.8 201.968 110.48 201.968 111.28C201.968 112.4 201.608 113.44 200.888 114.4C200.248 115.44 199.928 116.56 199.928 117.76C199.928 118.8 200.208 119.48 200.768 119.8C201.328 120.12 202.088 120.28 203.048 120.28C204.328 120.28 205.488 119.96 206.528 119.32C207.648 118.76 208.728 117.8 209.768 116.44C210.808 115.08 211.848 113.28 212.888 111.04C213.928 108.88 215.088 106.2 216.368 103L221.648 89.56L200.888 38.2H192.608V36.52ZM293.38 62.2H294.7C295.58 66.52 296.7 70.16 298.06 73.12C299.5 76.08 301.06 78.52 302.74 80.44C304.42 82.36 306.18 83.84 308.02 84.88C309.86 85.92 311.7 86.68 313.54 87.16C315.46 87.64 317.26 87.92 318.94 88C320.7 88.08 322.34 88.12 323.86 88.12C328.1 88.12 331.58 87.48 334.3 86.2C337.02 84.92 339.18 83.32 340.78 81.4C342.38 79.4 343.5 77.28 344.14 75.04C344.78 72.72 345.1 70.6 345.1 68.68C345.1 65.88 344.58 63.48 343.54 61.48C342.5 59.48 341.18 57.8 339.58 56.44C337.98 55 336.22 53.84 334.3 52.96C332.46 52.08 330.7 51.4 329.02 50.92L315.22 46.72C308.74 44.72 303.82 42.08 300.46 38.8C297.18 35.52 295.54 31.12 295.54 25.6C295.54 22 296.18 18.68 297.46 15.64C298.74 12.52 300.54 9.84 302.86 7.6C305.18 5.36 307.94 3.6 311.14 2.31999C314.42 1.04 317.98 0.399998 321.82 0.399998C324.62 0.399998 326.94 0.639997 328.78 1.12C330.7 1.59999 332.34 2.15999 333.7 2.8C335.06 3.36 336.26 3.88 337.3 4.36C338.42 4.84 339.54 5.07999 340.66 5.07999C341.7 5.07999 342.38 4.96 342.7 4.72C343.1 4.4 343.62 3.68 344.26 2.56H345.94V24.28H344.5C344.02 21.4 343.18 18.64 341.98 16C340.86 13.28 339.38 10.92 337.54 8.92C335.7 6.83999 333.46 5.19999 330.82 3.99999C328.26 2.72 325.26 2.08 321.82 2.08C319.9 2.08 317.78 2.36 315.46 2.91999C313.14 3.4 310.98 4.28 308.98 5.56C306.98 6.84 305.3 8.52 303.94 10.6C302.66 12.68 302.02 15.32 302.02 18.52C302.02 21.08 302.54 23.28 303.58 25.12C304.62 26.88 305.94 28.4 307.54 29.68C309.22 30.88 311.06 31.92 313.06 32.8C315.14 33.6 317.22 34.32 319.3 34.96L333.82 39.52C335.34 40 337.26 40.64 339.58 41.44C341.9 42.24 344.14 43.44 346.3 45.04C348.54 46.64 350.42 48.76 351.94 51.4C353.54 54.04 354.34 57.4 354.34 61.48C354.34 65.24 353.62 68.84 352.18 72.28C350.82 75.64 348.82 78.64 346.18 81.28C343.54 83.84 340.34 85.92 336.58 87.52C332.82 89.04 328.58 89.8 323.86 89.8C322.18 89.8 320.7 89.76 319.42 89.68C318.14 89.68 316.94 89.6 315.82 89.44C314.7 89.28 313.58 89.08 312.46 88.84C311.34 88.68 310.1 88.4 308.74 88C307.14 87.52 305.42 86.96 303.58 86.32C301.74 85.68 300.14 85.36 298.78 85.36C297.58 85.36 296.74 85.6 296.26 86.08C295.86 86.56 295.5 87.2 295.18 88H293.38V62.2ZM375.579 8.55999C375.579 6.8 376.179 5.32 377.379 4.11999C378.659 2.83999 380.179 2.2 381.939 2.2C383.699 2.2 385.179 2.83999 386.379 4.11999C387.659 5.32 388.299 6.8 388.299 8.55999C388.299 10.32 387.659 11.84 386.379 13.12C385.179 14.32 383.699 14.92 381.939 14.92C380.179 14.92 378.659 14.32 377.379 13.12C376.179 11.84 375.579 10.32 375.579 8.55999ZM367.779 86.32H377.019V38.2H367.779V36.52H387.339V86.32H396.579V88H367.779V86.32ZM402.327 86.32H411.567V38.2H402.327V36.52H421.647V49.12H421.887C423.567 44.32 425.967 40.8 429.087 38.56C432.287 36.32 436.127 35.2 440.607 35.2C444.607 35.2 448.127 36.08 451.167 37.84C454.287 39.6 456.327 42.52 457.287 46.6H457.527C458.087 45.16 458.847 43.76 459.807 42.4C460.767 41.04 461.967 39.84 463.407 38.8C464.847 37.68 466.527 36.8 468.447 36.16C470.447 35.52 472.687 35.2 475.167 35.2C486.847 35.2 492.687 41.16 492.687 53.08V86.32H501.927V88H473.127V86.32H482.367V45.52C482.367 42.8 481.607 40.68 480.087 39.16C478.647 37.64 476.647 36.88 474.087 36.88C472.087 36.88 470.087 37.28 468.087 38.08C466.087 38.8 464.287 39.92 462.687 41.44C461.087 42.96 459.767 44.92 458.727 47.32C457.767 49.72 457.287 52.52 457.287 55.72V86.32H466.527V88H437.727V86.32H446.967V47.2C446.967 43.68 446.247 41.08 444.807 39.4C443.367 37.72 441.447 36.88 439.047 36.88C437.367 36.88 435.527 37.32 433.527 38.2C431.527 39 429.647 40.32 427.887 42.16C426.207 43.92 424.767 46.24 423.567 49.12C422.447 52 421.887 55.52 421.887 59.68V86.32H431.127V88H402.327V86.32ZM520.541 62.32C520.541 68 520.981 72.52 521.861 75.88C522.741 79.24 523.901 81.84 525.341 83.68C526.781 85.44 528.461 86.6 530.381 87.16C532.301 87.72 534.341 88 536.501 88C538.661 88 540.701 87.72 542.621 87.16C544.541 86.6 546.221 85.44 547.661 83.68C549.101 81.84 550.261 79.24 551.141 75.88C552.021 72.52 552.461 68 552.461 62.32C552.461 57.52 552.141 53.52 551.501 50.32C550.861 47.04 549.861 44.4 548.501 42.4C547.221 40.32 545.581 38.84 543.581 37.96C541.581 37.08 539.221 36.64 536.501 36.64C533.781 36.64 531.421 37.08 529.421 37.96C527.421 38.84 525.741 40.32 524.381 42.4C523.101 44.4 522.141 47.04 521.501 50.32C520.861 53.52 520.541 57.52 520.541 62.32ZM508.541 62.32C508.541 58.4 509.381 54.76 511.061 51.4C512.821 48.04 515.021 45.16 517.661 42.76C520.381 40.28 523.381 38.36 526.661 37C530.021 35.64 533.301 34.96 536.501 34.96C539.701 34.96 542.941 35.64 546.221 37C549.581 38.36 552.581 40.28 555.221 42.76C557.941 45.16 560.141 48.04 561.821 51.4C563.581 54.76 564.461 58.4 564.461 62.32C564.461 66.08 563.661 69.64 562.061 73C560.461 76.28 558.341 79.16 555.701 81.64C553.141 84.12 550.181 86.08 546.821 87.52C543.461 88.96 540.021 89.68 536.501 89.68C532.981 89.68 529.541 88.96 526.181 87.52C522.821 86.08 519.821 84.12 517.181 81.64C514.621 79.16 512.541 76.28 510.941 73C509.341 69.64 508.541 66.08 508.541 62.32ZM571.62 86.32H580.86V38.2H571.62V36.52H590.94V49.36H591.18C591.66 48.32 592.34 47 593.22 45.4C594.18 43.8 595.46 42.24 597.06 40.72C598.66 39.2 600.66 37.92 603.06 36.88C605.46 35.76 608.38 35.2 611.82 35.2C617.1 35.2 621.38 36.48 624.66 39.04C628.02 41.6 629.7 45.68 629.7 51.28V86.32H638.94V88H610.14V86.32H619.38V47.56C619.38 44.44 618.62 41.88 617.1 39.88C615.66 37.88 613.38 36.88 610.26 36.88C607.7 36.88 605.26 37.44 602.94 38.56C600.62 39.68 598.58 41.24 596.82 43.24C595.06 45.24 593.66 47.6 592.62 50.32C591.66 53.04 591.18 56 591.18 59.2V86.32H600.42V88H571.62V86.32Z" fill="black"/>
<path d="M39.9003 16.36L40.6486 16.0771L39.9003 14.0975L39.152 16.0771L39.9003 16.36ZM26.7003 51.28L25.952 50.9971L25.5427 52.08H26.7003V51.28ZM53.1003 51.28V52.08H54.258L53.8486 50.9971L53.1003 51.28ZM0.900325 86.32V85.52H0.100325V86.32H0.900325ZM11.4603 86.32V87.12H12.0136L12.2089 86.6023L11.4603 86.32ZM43.8603 0.399998V-0.400002H43.307L43.1118 0.117725L43.8603 0.399998ZM46.7403 0.399998L47.4882 0.115896L47.2922 -0.400002H46.7403V0.399998ZM79.3803 86.32L78.6325 86.6041L78.8285 87.12H79.3803V86.32ZM90.0603 86.32H90.8603V85.52H90.0603V86.32ZM90.0603 88V88.8H90.8603V88H90.0603ZM53.1003 88H52.3003V88.8H53.1003V88ZM53.1003 86.32V85.52H52.3003V86.32H53.1003ZM66.4203 86.32V87.12H67.5776L67.1687 86.0373L66.4203 86.32ZM53.8203 52.96L54.5687 52.6773L54.3733 52.16H53.8203V52.96ZM25.9803 52.96V52.16H25.4273L25.2319 52.6773L25.9803 52.96ZM13.3803 86.32L12.6319 86.0373L12.223 87.12H13.3803V86.32ZM26.7003 86.32H27.5003V85.52H26.7003V86.32ZM26.7003 88V88.8H27.5003V88H26.7003ZM0.900325 88H0.100325V88.8H0.900325V88ZM39.152 16.0771L25.952 50.9971L27.4486 51.5629L40.6486 16.6429L39.152 16.0771ZM26.7003 52.08H53.1003V50.48H26.7003V52.08ZM53.8486 50.9971L40.6486 16.0771L39.152 16.6429L52.352 51.5629L53.8486 50.9971ZM0.900325 87.12H11.4603V85.52H0.900325V87.12ZM12.2089 86.6023L44.6089 0.682271L43.1118 0.117725L10.7118 86.0377L12.2089 86.6023ZM43.8603 1.2H46.7403V-0.400002H43.8603V1.2ZM45.9925 0.684099L78.6325 86.6041L80.1282 86.0359L47.4882 0.115896L45.9925 0.684099ZM79.3803 87.12H90.0603V85.52H79.3803V87.12ZM89.2603 86.32V88H90.8603V86.32H89.2603ZM90.0603 87.2H53.1003V88.8H90.0603V87.2ZM53.9003 88V86.32H52.3003V88H53.9003ZM53.1003 87.12H66.4203V85.52H53.1003V87.12ZM67.1687 86.0373L54.5687 52.6773L53.0719 53.2427L65.6719 86.6027L67.1687 86.0373ZM53.8203 52.16H25.9803V53.76H53.8203V52.16ZM25.2319 52.6773L12.6319 86.0373L14.1287 86.6027L26.7287 53.2427L25.2319 52.6773ZM13.3803 87.12H26.7003V85.52H13.3803V87.12ZM25.9003 86.32V88H27.5003V86.32H25.9003ZM26.7003 87.2H0.900325V88.8H26.7003V87.2ZM1.70032 88V86.32H0.100325V88H1.70032ZM93.5656 86.32V85.52H92.7656V86.32H93.5656ZM102.806 86.32V87.12H103.606V86.32H102.806ZM102.806 38.2H103.606V37.4H102.806V38.2ZM93.5656 38.2H92.7656V39H93.5656V38.2ZM93.5656 36.52V35.72H92.7656V36.52H93.5656ZM112.886 36.52H113.686V35.72H112.886V36.52ZM112.886 49.12H112.086V49.92H112.886V49.12ZM113.126 49.12V49.92H113.693L113.881 49.3843L113.126 49.12ZM120.326 38.56L119.867 37.9046L119.859 37.9101L120.326 38.56ZM142.406 37.84L142.005 38.5324L142.013 38.5368L142.406 37.84ZM148.526 46.6L147.747 46.7832L147.892 47.4H148.526V46.6ZM148.766 46.6V47.4H149.313L149.511 46.89L148.766 46.6ZM151.046 42.4L150.392 41.9386L150.392 41.9387L151.046 42.4ZM154.646 38.8L155.114 39.4485L155.126 39.4402L155.137 39.4315L154.646 38.8ZM159.686 36.16L159.442 35.398L159.433 35.4011L159.686 36.16ZM183.926 86.32H183.126V87.12H183.926V86.32ZM193.166 86.32H193.966V85.52H193.166V86.32ZM193.166 88V88.8H193.966V88H193.166ZM164.366 88H163.566V88.8H164.366V88ZM164.366 86.32V85.52H163.566V86.32H164.366ZM173.606 86.32V87.12H174.406V86.32H173.606ZM171.326 39.16L170.745 39.7102L170.752 39.718L170.76 39.7257L171.326 39.16ZM159.326 38.08L159.597 38.8327L159.61 38.828L159.623 38.8228L159.326 38.08ZM153.926 41.44L153.375 40.86L153.375 40.86L153.926 41.44ZM149.966 47.32L149.232 47.0019L149.227 47.0123L149.223 47.0229L149.966 47.32ZM148.526 86.32H147.726V87.12H148.526V86.32ZM157.766 86.32H158.566V85.52H157.766V86.32ZM157.766 88V88.8H158.566V88H157.766ZM128.966 88H128.166V88.8H128.966V88ZM128.966 86.32V85.52H128.166V86.32H128.966ZM138.206 86.32V87.12H139.006V86.32H138.206ZM136.046 39.4L136.653 38.8794L136.653 38.8794L136.046 39.4ZM124.766 38.2L125.063 38.9428L125.075 38.9377L125.088 38.9322L124.766 38.2ZM119.126 42.16L118.548 41.607L118.547 41.6076L119.126 42.16ZM114.806 49.12L114.067 48.8123L114.063 48.8211L114.06 48.83L114.806 49.12ZM113.126 86.32H112.326V87.12H113.126V86.32ZM122.366 86.32H123.166V85.52H122.366V86.32ZM122.366 88V88.8H123.166V88H122.366ZM93.5656 88H92.7656V88.8H93.5656V88ZM93.5656 87.12H102.806V85.52H93.5656V87.12ZM103.606 86.32V38.2H102.006V86.32H103.606ZM102.806 37.4H93.5656V39H102.806V37.4ZM94.3656 38.2V36.52H92.7656V38.2H94.3656ZM93.5656 37.32H112.886V35.72H93.5656V37.32ZM112.086 36.52V49.12H113.686V36.52H112.086ZM112.886 49.92H113.126V48.32H112.886V49.92ZM113.881 49.3843C115.524 44.6897 117.843 41.3273 120.792 39.2099L119.859 37.9101C116.568 40.2727 114.087 43.9503 112.371 48.8557L113.881 49.3843ZM120.784 39.2154C123.831 37.0829 127.505 36 131.846 36V34.4C127.226 34.4 123.22 35.5571 119.867 37.9046L120.784 39.2154ZM131.846 36C135.725 36 139.103 36.8522 142.005 38.5323L142.806 37.1477C139.629 35.3078 135.967 34.4 131.846 34.4V36ZM142.013 38.5368C144.904 40.1681 146.829 42.8803 147.747 46.7832L149.304 46.4168C148.303 42.1597 146.147 39.0319 142.799 37.1432L142.013 38.5368ZM148.526 47.4H148.766V45.8H148.526V47.4ZM149.511 46.89C150.046 45.5151 150.774 44.1723 151.699 42.8613L150.392 41.9387C149.397 43.3477 148.605 44.8049 148.02 46.31L149.511 46.89ZM151.699 42.8613C152.605 41.5782 153.741 40.4403 155.114 39.4485L154.177 38.1515C152.67 39.2397 151.406 40.5017 150.392 41.9386L151.699 42.8613ZM155.137 39.4315C156.498 38.3729 158.095 37.5334 159.939 36.9189L159.433 35.4011C157.436 36.0666 155.673 36.9871 154.154 38.1685L155.137 39.4315ZM159.929 36.9219C161.838 36.3112 163.994 36 166.406 36V34.4C163.857 34.4 161.533 34.7288 159.442 35.3981L159.929 36.9219ZM166.406 36C172.118 36 176.257 37.4564 178.974 40.2299C181.695 43.0064 183.126 47.2393 183.126 53.08H184.726C184.726 47.0007 183.236 42.2935 180.117 39.1101C176.995 35.9236 172.373 34.4 166.406 34.4V36ZM183.126 53.08V86.32H184.726V53.08H183.126ZM183.926 87.12H193.166V85.52H183.926V87.12ZM192.366 86.32V88H193.966V86.32H192.366ZM193.166 87.2H164.366V88.8H193.166V87.2ZM165.166 88V86.32H163.566V88H165.166ZM164.366 87.12H173.606V85.52H164.366V87.12ZM174.406 86.32V45.52H172.806V86.32H174.406ZM174.406 45.52C174.406 42.6471 173.599 40.3016 171.891 38.5943L170.76 39.7257C172.093 41.0584 172.806 42.9529 172.806 45.52H174.406ZM171.906 38.6098C170.283 36.8959 168.053 36.08 165.326 36.08V37.68C167.718 37.68 169.489 38.3841 170.745 39.7102L171.906 38.6098ZM165.326 36.08C163.216 36.08 161.116 36.5024 159.029 37.3372L159.623 38.8228C161.536 38.0576 163.435 37.68 165.326 37.68V36.08ZM159.055 37.3273C156.946 38.0863 155.052 39.2666 153.375 40.86L154.477 42.02C155.999 40.5734 157.705 39.5137 159.597 38.8327L159.055 37.3273ZM153.375 40.86C151.684 42.4665 150.307 44.5212 149.232 47.0019L150.7 47.6381C151.705 45.3188 152.968 43.4535 154.477 42.02L153.375 40.86ZM149.223 47.0229C148.217 49.5369 147.726 52.4416 147.726 55.72H149.326C149.326 52.5984 149.794 49.9031 150.708 47.6171L149.223 47.0229ZM147.726 55.72V86.32H149.326V55.72H147.726ZM148.526 87.12H157.766V85.52H148.526V87.12ZM156.966 86.32V88H158.566V86.32H156.966ZM157.766 87.2H128.966V88.8H157.766V87.2ZM129.766 88V86.32H128.166V88H129.766ZM128.966 87.12H138.206V85.52H128.966V87.12ZM139.006 86.32V47.2H137.406V86.32H139.006ZM139.006 47.2C139.006 43.5955 138.272 40.7687 136.653 38.8794L135.438 39.9206C136.699 41.3913 137.406 43.7645 137.406 47.2H139.006ZM136.653 38.8794C135.047 37.0057 132.897 36.08 130.286 36.08V37.68C132.474 37.68 134.164 38.4343 135.438 39.9206L136.653 38.8794ZM130.286 36.08C128.467 36.08 126.516 36.5559 124.443 37.4677L125.088 38.9322C127.015 38.0841 128.745 37.68 130.286 37.68V36.08ZM124.469 37.4572C122.345 38.3067 120.372 39.6993 118.548 41.607L119.704 42.713C121.399 40.9407 123.186 39.6933 125.063 38.9428L124.469 37.4572ZM118.547 41.6076C116.783 43.4556 115.295 45.8661 114.067 48.8123L115.544 49.4277C116.716 46.6139 118.108 44.3844 119.704 42.7124L118.547 41.6076ZM114.06 48.83C112.894 51.8284 112.326 55.4531 112.326 59.68H113.926C113.926 55.5869 114.477 52.1716 115.551 49.41L114.06 48.83ZM112.326 59.68V86.32H113.926V59.68H112.326ZM113.126 87.12H122.366V85.52H113.126V87.12ZM121.566 86.32V88H123.166V86.32H121.566ZM122.366 87.2H93.5656V88.8H122.366V87.2ZM94.3656 88V86.32H92.7656V88H94.3656ZM192.608 36.52V35.72H191.808V36.52H192.608ZM222.008 36.52H222.808V35.72H222.008V36.52ZM222.008 38.2V39H222.808V38.2H222.008ZM211.928 38.2V37.4H210.734L211.188 38.504L211.928 38.2ZM227.408 75.88L226.668 76.184L227.391 77.9444L228.143 76.196L227.408 75.88ZM243.608 38.2L244.343 38.516L244.823 37.4H243.608V38.2ZM233.648 38.2H232.848V39H233.648V38.2ZM233.648 36.52V35.72H232.848V36.52H233.648ZM252.008 36.52H252.808V35.72H252.008V36.52ZM252.008 38.2V39H252.808V38.2H252.008ZM245.528 38.2V37.4H245L244.792 37.8856L245.528 38.2ZM225.728 84.52L226.46 84.8434L226.463 84.8344L225.728 84.52ZM221.408 94.84L220.664 94.5459L220.662 94.5517L221.408 94.84ZM217.328 105.4L218.073 105.69L218.074 105.688L217.328 105.4ZM213.968 112.96L213.258 112.592L213.258 112.592L213.968 112.96ZM210.368 118.24L209.785 117.692L209.776 117.701L209.768 117.711L210.368 118.24ZM206.408 121.24L206.083 120.509L206.066 120.516L206.05 120.524L206.408 121.24ZM195.728 121.24L195.354 121.947L195.362 121.951L195.37 121.956L195.728 121.24ZM192.488 118.72L193.102 118.208L192.488 118.72ZM190.928 115.72L191.707 115.54L191.707 115.54L190.928 115.72ZM192.248 108.52L191.727 107.913L191.715 107.923L191.703 107.934L192.248 108.52ZM198.128 107.2L198.322 106.424L198.275 106.412L198.227 106.406L198.128 107.2ZM199.928 107.92L199.531 108.615L199.531 108.615L199.928 107.92ZM201.368 109.24L202.019 108.775L202.019 108.775L201.368 109.24ZM200.888 114.4L200.248 113.92L200.226 113.949L200.206 113.981L200.888 114.4ZM200.768 119.8L201.165 119.105L200.768 119.8ZM206.528 119.32L206.17 118.604L206.139 118.62L206.109 118.639L206.528 119.32ZM209.768 116.44L210.403 116.926L210.403 116.926L209.768 116.44ZM212.888 111.04L212.167 110.693L212.162 110.703L212.888 111.04ZM216.368 103L217.111 103.297L217.112 103.293L216.368 103ZM221.648 89.56L222.392 89.8525L222.509 89.5558L222.39 89.2602L221.648 89.56ZM200.888 38.2L201.63 37.9002L201.427 37.4H200.888V38.2ZM192.608 38.2H191.808V39H192.608V38.2ZM192.608 37.32H222.008V35.72H192.608V37.32ZM221.208 36.52V38.2H222.808V36.52H221.208ZM222.008 37.4H211.928V39H222.008V37.4ZM211.188 38.504L226.668 76.184L228.148 75.576L212.668 37.896L211.188 38.504ZM228.143 76.196L244.343 38.516L242.873 37.884L226.673 75.564L228.143 76.196ZM243.608 37.4H233.648V39H243.608V37.4ZM234.448 38.2V36.52H232.848V38.2H234.448ZM233.648 37.32H252.008V35.72H233.648V37.32ZM251.208 36.52V38.2H252.808V36.52H251.208ZM252.008 37.4H245.528V39H252.008V37.4ZM244.792 37.8856L224.992 84.2056L226.463 84.8344L246.263 38.5144L244.792 37.8856ZM224.996 84.1967C223.472 87.6462 222.028 91.0959 220.664 94.5459L222.152 95.1341C223.508 91.7041 224.944 88.2738 226.46 84.8433L224.996 84.1967ZM220.662 94.5517C219.302 98.0717 217.942 101.592 216.582 105.112L218.074 105.688C219.434 102.168 220.794 98.6483 222.154 95.1283L220.662 94.5517ZM216.582 105.11C215.47 107.97 214.361 110.463 213.258 112.592L214.678 113.328C215.814 111.137 216.946 108.59 218.073 105.69L216.582 105.11ZM213.258 112.592C212.162 114.705 211.002 116.399 209.785 117.692L210.95 118.788C212.294 117.361 213.534 115.535 214.678 113.328L213.258 112.592ZM209.768 117.711C208.633 118.997 207.403 119.922 206.083 120.509L206.733 121.971C208.293 121.278 209.703 120.203 210.968 118.769L209.768 117.711ZM206.05 120.524C204.741 121.179 203.187 121.52 201.368 121.52V123.12C203.388 123.12 205.195 122.741 206.766 121.956L206.05 120.524ZM201.368 121.52C199.121 121.52 197.377 121.17 196.086 120.524L195.37 121.956C196.959 122.75 198.975 123.12 201.368 123.12V121.52ZM196.102 120.533C194.813 119.851 193.822 119.072 193.102 118.208L191.873 119.232C192.753 120.288 193.922 121.189 195.354 121.947L196.102 120.533ZM193.102 118.208C192.369 117.328 191.915 116.439 191.707 115.54L190.148 115.9C190.421 117.081 191.007 118.192 191.873 119.232L193.102 118.208ZM191.707 115.54C191.475 114.534 191.368 113.718 191.368 113.08H189.768C189.768 113.882 189.901 114.826 190.148 115.9L191.707 115.54ZM191.368 113.08C191.368 111.23 191.882 109.952 192.792 109.106L191.703 107.934C190.374 109.168 189.768 110.93 189.768 113.08H191.368ZM192.768 109.127C193.731 108.303 194.901 107.88 196.328 107.88V106.28C194.554 106.28 193.005 106.817 191.727 107.913L192.768 109.127ZM196.328 107.88C196.85 107.88 197.417 107.917 198.029 107.994L198.227 106.406C197.559 106.323 196.926 106.28 196.328 106.28V107.88ZM197.934 107.976C198.504 108.119 199.036 108.332 199.531 108.615L200.325 107.225C199.7 106.868 199.031 106.601 198.322 106.424L197.934 107.976ZM199.531 108.615C199.984 108.874 200.379 109.233 200.717 109.705L202.019 108.775C201.556 108.127 200.992 107.606 200.325 107.225L199.531 108.615ZM200.717 109.705C201.005 110.108 201.168 110.619 201.168 111.28H202.768C202.768 110.341 202.531 109.492 202.019 108.775L200.717 109.705ZM201.168 111.28C201.168 112.214 200.872 113.088 200.248 113.92L201.528 114.88C202.344 113.792 202.768 112.586 202.768 111.28H201.168ZM200.206 113.981C199.49 115.144 199.128 116.409 199.128 117.76H200.728C200.728 116.711 201.005 115.736 201.569 114.819L200.206 113.981ZM199.128 117.76C199.128 118.901 199.434 119.959 200.371 120.495L201.165 119.105C200.982 119.001 200.728 118.699 200.728 117.76H199.128ZM200.371 120.495C201.097 120.909 202.012 121.08 203.048 121.08V119.48C202.164 119.48 201.559 119.331 201.165 119.105L200.371 120.495ZM203.048 121.08C204.468 121.08 205.775 120.723 206.947 120.001L206.109 118.639C205.201 119.197 204.187 119.48 203.048 119.48V121.08ZM206.886 120.036C208.147 119.405 209.315 118.349 210.403 116.926L209.132 115.954C208.141 117.251 207.149 118.115 206.17 118.604L206.886 120.036ZM210.403 116.926C211.49 115.504 212.559 113.649 213.613 111.377L212.162 110.703C211.137 112.911 210.125 114.656 209.132 115.954L210.403 116.926ZM213.609 111.387C214.659 109.205 215.826 106.507 217.111 103.297L215.625 102.703C214.349 105.893 213.197 108.555 212.167 110.693L213.609 111.387ZM217.112 103.293L222.392 89.8525L220.903 89.2675L215.623 102.707L217.112 103.293ZM222.39 89.2602L201.63 37.9002L200.146 38.4998L220.906 89.8598L222.39 89.2602ZM200.888 37.4H192.608V39H200.888V37.4ZM193.408 38.2V36.52H191.808V38.2H193.408ZM293.38 62.2V61.4H292.58V62.2H293.38ZM294.7 62.2L295.484 62.0403L295.353 61.4H294.7V62.2ZM298.06 73.12L297.333 73.454L297.336 73.462L297.34 73.47L298.06 73.12ZM302.74 80.44L303.342 79.9132L303.342 79.9132L302.74 80.44ZM313.54 87.16L313.338 87.9341L313.346 87.9361L313.54 87.16ZM318.94 88L318.902 88.7991L318.903 88.7992L318.94 88ZM334.3 86.2L333.959 85.4761L333.959 85.4761L334.3 86.2ZM340.78 81.4L341.394 81.9121L341.399 81.906L341.404 81.8998L340.78 81.4ZM344.14 75.04L344.909 75.2598L344.911 75.2527L344.14 75.04ZM343.54 61.48L344.249 61.1109L344.249 61.1109L343.54 61.48ZM339.58 56.44L339.045 57.0346L339.053 57.0422L339.062 57.0496L339.58 56.44ZM334.3 52.96L333.954 53.6818L333.966 53.6872L334.3 52.96ZM329.02 50.92L328.787 51.6854L328.8 51.6892L329.02 50.92ZM315.22 46.72L314.984 47.4844L314.987 47.4853L315.22 46.72ZM300.46 38.8L299.894 39.3657L299.901 39.3725L300.46 38.8ZM297.46 15.64L298.197 15.9505L298.2 15.9436L297.46 15.64ZM302.86 7.6L303.415 8.17552L303.415 8.17552L302.86 7.6ZM311.14 2.31999L310.849 1.57471L310.843 1.57721L311.14 2.31999ZM328.78 1.12L328.578 1.89413L328.586 1.89611L328.78 1.12ZM333.7 2.8L333.359 3.52385L333.377 3.53224L333.395 3.53974L333.7 2.8ZM337.3 4.36L336.964 5.08636L336.974 5.09098L336.985 5.09531L337.3 4.36ZM342.7 4.72L343.18 5.36L343.19 5.3525L343.199 5.34469L342.7 4.72ZM344.26 2.56V1.76H343.795L343.565 2.16309L344.26 2.56ZM345.94 2.56H346.74V1.76H345.94V2.56ZM345.94 24.28V25.08H346.74V24.28H345.94ZM344.5 24.28L343.711 24.4115L343.822 25.08H344.5V24.28ZM341.98 16L341.24 16.3046L341.245 16.3179L341.251 16.331L341.98 16ZM337.54 8.92L336.941 9.45005L336.946 9.4559L336.951 9.46164L337.54 8.92ZM330.82 3.99999L330.462 4.71554L330.475 4.72216L330.489 4.72829L330.82 3.99999ZM315.46 2.91999L315.622 3.7034L315.635 3.70074L315.647 3.69766L315.46 2.91999ZM308.98 5.56L308.548 4.88618L308.548 4.88618L308.98 5.56ZM303.94 10.6L303.27 10.1622L303.264 10.1714L303.258 10.1807L303.94 10.6ZM303.58 25.12L302.883 25.5136L302.887 25.5203L302.891 25.527L303.58 25.12ZM307.54 29.68L307.04 30.3047L307.057 30.3183L307.075 30.331L307.54 29.68ZM313.06 32.8L312.738 33.5323L312.755 33.5399L312.773 33.5467L313.06 32.8ZM319.3 34.96L319.539 34.1967L319.535 34.1954L319.3 34.96ZM333.82 39.52L334.061 38.7571L334.059 38.7568L333.82 39.52ZM339.58 41.44L339.319 42.1963L339.319 42.1963L339.58 41.44ZM346.3 45.04L345.823 45.6829L345.835 45.691L346.3 45.04ZM351.94 51.4L351.246 51.7992L351.251 51.807L351.256 51.8146L351.94 51.4ZM352.18 72.28L351.442 71.9711L351.438 71.9798L352.18 72.28ZM346.18 81.28L346.737 81.8544L346.745 81.8457L346.18 81.28ZM336.58 87.52L336.88 88.2617L336.886 88.259L336.893 88.2561L336.58 87.52ZM319.42 89.68L319.47 88.8816L319.445 88.88H319.42V89.68ZM315.82 89.44L315.933 88.648L315.933 88.648L315.82 89.44ZM312.46 88.84L312.627 88.0578L312.6 88.052L312.573 88.048L312.46 88.84ZM308.74 88L308.51 88.7663L308.514 88.7675L308.74 88ZM303.58 86.32L303.317 87.0756L303.317 87.0756L303.58 86.32ZM296.26 86.08L295.694 85.5143L295.668 85.54L295.645 85.5679L296.26 86.08ZM295.18 88V88.8H295.721L295.922 88.2971L295.18 88ZM293.38 88H292.58V88.8H293.38V88ZM293.38 63H294.7V61.4H293.38V63ZM293.916 62.3597C294.804 66.7202 295.94 70.4226 297.333 73.454L298.787 72.786C297.459 69.8974 296.355 66.3198 295.484 62.0403L293.916 62.3597ZM297.34 73.47C298.803 76.4764 300.4 78.9805 302.138 80.9668L303.342 79.9132C301.72 78.0595 300.196 75.6836 298.779 72.77L297.34 73.47ZM302.138 80.9668C303.865 82.9411 305.693 84.4839 307.626 85.5765L308.413 84.1835C306.666 83.1961 304.974 81.7789 303.342 79.9132L302.138 80.9668ZM307.626 85.5765C309.52 86.6468 311.424 87.4348 313.338 87.9341L313.742 86.3859C311.976 85.9252 310.2 85.1932 308.413 84.1835L307.626 85.5765ZM313.346 87.9361C315.308 88.4267 317.161 88.7162 318.902 88.7991L318.978 87.2009C317.359 87.1238 315.611 86.8533 313.734 86.3839L313.346 87.9361ZM318.903 88.7992C320.674 88.8796 322.326 88.92 323.86 88.92V87.32C322.354 87.32 320.726 87.2804 318.976 87.2008L318.903 88.7992ZM323.86 88.92C328.172 88.92 331.779 88.2702 334.64 86.9239L333.959 85.4761C331.38 86.6898 328.027 87.32 323.86 87.32V88.92ZM334.64 86.9239C337.445 85.6041 339.706 83.9382 341.394 81.9121L340.165 80.8879C338.654 82.7018 336.594 84.2359 333.959 85.4761L334.64 86.9239ZM341.404 81.8998C343.064 79.8252 344.237 77.6115 344.909 75.2598L343.37 74.8202C342.762 76.9485 341.695 78.9748 340.155 80.9002L341.404 81.8998ZM344.911 75.2527C345.565 72.8801 345.9 70.6874 345.9 68.68H344.3C344.3 70.5126 343.994 72.5599 343.369 74.8273L344.911 75.2527ZM345.9 68.68C345.9 65.7821 345.361 63.2492 344.249 61.1109L342.83 61.8491C343.798 63.7108 344.3 65.9779 344.3 68.68H345.9ZM344.249 61.1109C343.165 59.0259 341.782 57.2623 340.098 55.8304L339.062 57.0496C340.577 58.3377 341.834 59.9341 342.83 61.8491L344.249 61.1109ZM340.115 55.8454C338.456 54.3522 336.628 53.1471 334.633 52.2327L333.966 53.6872C335.811 54.5329 337.504 55.6477 339.045 57.0346L340.115 55.8454ZM334.645 52.2383C332.771 51.3421 330.969 50.6449 329.239 50.1508L328.8 51.6892C330.43 52.1551 332.148 52.8179 333.955 53.6817L334.645 52.2383ZM329.253 50.1547L315.453 45.9547L314.987 47.4853L328.787 51.6853L329.253 50.1547ZM315.456 45.9556C309.047 43.9775 304.256 41.3883 301.019 38.2275L299.901 39.3725C303.383 42.7717 308.433 45.4624 314.984 47.4844L315.456 45.9556ZM301.025 38.2343C297.923 35.1324 296.34 30.9511 296.34 25.6H294.74C294.74 31.2889 296.436 35.9076 299.894 39.3657L301.025 38.2343ZM296.34 25.6C296.34 22.0968 296.962 18.8835 298.197 15.9504L296.722 15.3295C295.397 18.4765 294.74 21.9032 294.74 25.6H296.34ZM298.2 15.9436C299.44 12.9213 301.179 10.3351 303.415 8.17552L302.304 7.02448C299.901 9.34487 298.04 12.1187 296.72 15.3363L298.2 15.9436ZM303.415 8.17552C305.656 6.01233 308.326 4.30697 311.437 3.06278L310.843 1.57721C307.553 2.89302 304.704 4.70767 302.304 7.02448L303.415 8.17552ZM311.431 3.06526C314.61 1.82458 318.07 1.2 321.82 1.2V-0.400002C317.889 -0.400002 314.23 0.255411 310.849 1.57473L311.431 3.06526ZM321.82 1.2C324.58 1.2 326.827 1.43731 328.578 1.89409L328.982 0.345902C327.053 -0.157314 324.659 -0.400002 321.82 -0.400002V1.2ZM328.586 1.89611C330.47 2.36721 332.058 2.91167 333.359 3.52385L334.04 2.07614C332.621 1.40832 330.929 0.832783 328.974 0.343881L328.586 1.89611ZM333.395 3.53974C334.748 4.09662 335.937 4.61213 336.964 5.08636L337.635 3.63363C336.582 3.14787 335.372 2.62338 334.004 2.06025L333.395 3.53974ZM336.985 5.09531C338.195 5.6142 339.422 5.87999 340.66 5.87999V4.27999C339.657 4.27999 338.644 4.06579 337.615 3.62468L336.985 5.09531ZM340.66 5.87999C341.205 5.87999 341.686 5.84888 342.089 5.77782C342.475 5.70971 342.871 5.59157 343.18 5.36L342.22 4.08C342.22 4.0795 342.194 4.09847 342.121 4.12479C342.05 4.15056 341.948 4.17788 341.811 4.20217C341.533 4.25111 341.154 4.27999 340.66 4.27999V5.87999ZM343.199 5.34469C343.733 4.91806 344.318 4.07044 344.954 2.95691L343.565 2.16309C342.921 3.28955 342.467 3.88193 342.2 4.0953L343.199 5.34469ZM344.26 3.36H345.94V1.76H344.26V3.36ZM345.14 2.56V24.28H346.74V2.56H345.14ZM345.94 23.48H344.5V25.08H345.94V23.48ZM345.289 24.1485C344.797 21.2001 343.937 18.373 342.708 15.669L341.251 16.331C342.422 18.907 343.242 21.5999 343.711 24.4115L345.289 24.1485ZM342.719 15.6954C341.566 12.8953 340.037 10.4534 338.128 8.37835L336.951 9.46164C338.722 11.3866 340.153 13.6647 341.24 16.3046L342.719 15.6954ZM338.139 8.38994C336.221 6.22203 333.888 4.5161 331.151 3.2717L330.489 4.72829C333.031 5.88388 335.178 7.45796 336.941 9.45005L338.139 8.38994ZM331.177 3.28445C328.486 1.93879 325.359 1.28 321.82 1.28V2.88C325.16 2.88 328.033 3.5012 330.462 4.71554L331.177 3.28445ZM321.82 1.28C319.823 1.28 317.639 1.57092 315.272 2.14233L315.647 3.69766C317.92 3.14907 319.976 2.88 321.82 2.88V1.28ZM315.298 2.13659C312.882 2.63643 310.631 3.55365 308.548 4.88618L309.411 6.23381C311.329 5.00635 313.398 4.16357 315.622 3.7034L315.298 2.13659ZM308.548 4.88618C306.449 6.22997 304.689 7.99207 303.27 10.1622L304.609 11.0378C305.91 9.04792 307.511 7.45003 309.411 6.23381L308.548 4.88618ZM303.258 10.1807C301.88 12.4203 301.22 15.2169 301.22 18.52H302.82C302.82 15.4231 303.439 12.9397 304.621 11.0193L303.258 10.1807ZM301.22 18.52C301.22 21.1889 301.762 23.5306 302.883 25.5136L304.276 24.7263C303.317 23.0294 302.82 20.9711 302.82 18.52H301.22ZM302.891 25.527C303.98 27.3706 305.364 28.9643 307.04 30.3047L308.039 29.0553C306.515 27.8357 305.259 26.3894 304.268 24.713L302.891 25.527ZM307.075 30.331C308.802 31.5647 310.69 32.6314 312.738 33.5323L313.382 32.0677C311.429 31.2086 309.637 30.1953 308.005 29.029L307.075 30.331ZM312.773 33.5467C314.869 34.3531 316.967 35.0791 319.064 35.7246L319.535 34.1954C317.473 33.5609 315.41 32.8469 313.347 32.0533L312.773 33.5467ZM319.06 35.7232L333.58 40.2832L334.059 38.7568L319.539 34.1967L319.06 35.7232ZM333.579 40.2829C335.09 40.76 337.002 41.3975 339.319 42.1963L339.84 40.6837C337.517 39.8825 335.59 39.24 334.061 38.7571L333.579 40.2829ZM339.319 42.1963C341.555 42.9673 343.723 44.1268 345.824 45.6828L346.776 44.3972C344.557 42.7532 342.245 41.5127 339.84 40.6837L339.319 42.1963ZM345.835 45.691C347.972 47.2176 349.777 49.2478 351.246 51.7992L352.633 51.0008C351.062 48.2722 349.107 46.0624 346.765 44.389L345.835 45.691ZM351.256 51.8146C352.759 54.2955 353.54 57.5004 353.54 61.48H355.14C355.14 57.2996 354.32 53.7845 352.624 50.9854L351.256 51.8146ZM353.54 61.48C353.54 65.1348 352.84 68.6298 351.442 71.9711L352.918 72.5889C354.399 69.0502 355.14 65.3452 355.14 61.48H353.54ZM351.438 71.9798C350.12 75.2374 348.181 78.1478 345.614 80.7143L346.745 81.8457C349.459 79.1322 351.52 76.0426 352.921 72.5802L351.438 71.9798ZM345.623 80.7057C343.061 83.19 339.946 85.2181 336.266 86.7839L336.893 88.2561C340.733 86.6219 344.019 84.49 346.737 81.8543L345.623 80.7057ZM336.28 86.7783C332.629 88.254 328.494 89 323.86 89V90.6C328.666 90.6 333.01 89.826 336.88 88.2617L336.28 86.7783ZM323.86 89C322.192 89 320.729 88.9603 319.47 88.8816L319.37 90.4784C320.671 90.5597 322.168 90.6 323.86 90.6V89ZM319.42 88.88C318.173 88.88 317.011 88.802 315.933 88.648L315.707 90.232C316.869 90.398 318.107 90.48 319.42 90.48V88.88ZM315.933 88.648C314.831 88.4907 313.73 88.2939 312.627 88.0578L312.292 89.6222C313.43 89.8661 314.568 90.0693 315.707 90.232L315.933 88.648ZM312.573 88.048C311.499 87.8946 310.297 87.6242 308.965 87.2325L308.514 88.7675C309.902 89.1758 311.18 89.4654 312.347 89.632L312.573 88.048ZM308.97 87.2337C307.382 86.7575 305.673 86.2012 303.843 85.5644L303.317 87.0756C305.166 87.7188 306.897 88.2825 308.51 88.7663L308.97 87.2337ZM303.843 85.5644C301.951 84.9066 300.259 84.56 298.78 84.56V86.16C300.021 86.16 301.528 86.4534 303.317 87.0756L303.843 85.5644ZM298.78 84.56C297.518 84.56 296.404 84.804 295.694 85.5143L296.825 86.6457C297.075 86.396 297.642 86.16 298.78 86.16V84.56ZM295.645 85.5679C295.175 86.1316 294.777 86.8522 294.437 87.7029L295.922 88.2971C296.222 87.5478 296.544 86.9884 296.874 86.5921L295.645 85.5679ZM295.18 87.2H293.38V88.8H295.18V87.2ZM294.18 88V62.2H292.58V88H294.18ZM377.379 4.11999L376.813 3.55431L376.813 3.55431L377.379 4.11999ZM386.379 4.11999L385.795 4.66715L385.813 4.68597L385.832 4.70362L386.379 4.11999ZM386.379 13.12L386.944 13.6857L386.944 13.6857L386.379 13.12ZM377.379 13.12L376.795 13.6672L376.813 13.686L376.832 13.7036L377.379 13.12ZM367.779 86.32V85.52H366.979V86.32H367.779ZM377.019 86.32V87.12H377.819V86.32H377.019ZM377.019 38.2H377.819V37.4H377.019V38.2ZM367.779 38.2H366.979V39H367.779V38.2ZM367.779 36.52V35.72H366.979V36.52H367.779ZM387.339 36.52H388.139V35.72H387.339V36.52ZM387.339 86.32H386.539V87.12H387.339V86.32ZM396.579 86.32H397.379V85.52H396.579V86.32ZM396.579 88V88.8H397.379V88H396.579ZM367.779 88H366.979V88.8H367.779V88ZM376.379 8.55999C376.379 7.00338 376.901 5.72955 377.944 4.68568L376.813 3.55431C375.457 4.91044 374.779 6.59661 374.779 8.55999H376.379ZM377.944 4.68568C379.079 3.55092 380.398 3 381.939 3V1.4C379.96 1.4 378.238 2.12907 376.813 3.55431L377.944 4.68568ZM381.939 3C383.478 3 384.747 3.54904 385.795 4.66715L386.962 3.57284C385.611 2.13095 383.919 1.4 381.939 1.4V3ZM385.832 4.70362C386.95 5.75185 387.499 7.02034 387.499 8.55999H389.099C389.099 6.57965 388.368 4.88814 386.926 3.53636L385.832 4.70362ZM387.499 8.55999C387.499 10.1011 386.948 11.4196 385.813 12.5543L386.944 13.6857C388.37 12.2604 389.099 10.5388 389.099 8.55999H387.499ZM385.813 12.5543C384.769 13.5982 383.495 14.12 381.939 14.12V15.72C383.902 15.72 385.588 15.0418 386.944 13.6857L385.813 12.5543ZM381.939 14.12C380.381 14.12 379.057 13.5969 377.926 12.5364L376.832 13.7036C378.26 15.0431 379.976 15.72 381.939 15.72V14.12ZM377.962 12.5728C376.902 11.4416 376.379 10.1175 376.379 8.55999H374.779C374.779 10.5225 375.456 12.2384 376.795 13.6672L377.962 12.5728ZM367.779 87.12H377.019V85.52H367.779V87.12ZM377.819 86.32V38.2H376.219V86.32H377.819ZM377.019 37.4H367.779V39H377.019V37.4ZM368.579 38.2V36.52H366.979V38.2H368.579ZM367.779 37.32H387.339V35.72H367.779V37.32ZM386.539 36.52V86.32H388.139V36.52H386.539ZM387.339 87.12H396.579V85.52H387.339V87.12ZM395.779 86.32V88H397.379V86.32H395.779ZM396.579 87.2H367.779V88.8H396.579V87.2ZM368.579 88V86.32H366.979V88H368.579ZM402.327 86.32V85.52H401.527V86.32H402.327ZM411.567 86.32V87.12H412.367V86.32H411.567ZM411.567 38.2H412.367V37.4H411.567V38.2ZM402.327 38.2H401.527V39H402.327V38.2ZM402.327 36.52V35.72H401.527V36.52H402.327ZM421.647 36.52H422.447V35.72H421.647V36.52ZM421.647 49.12H420.847V49.92H421.647V49.12ZM421.887 49.12V49.92H422.454L422.642 49.3843L421.887 49.12ZM429.087 38.56L428.628 37.9046L428.62 37.9101L429.087 38.56ZM451.167 37.84L450.766 38.5324L450.774 38.5368L451.167 37.84ZM457.287 46.6L456.508 46.7832L456.653 47.4H457.287V46.6ZM457.527 46.6V47.4H458.074L458.272 46.89L457.527 46.6ZM459.807 42.4L459.153 41.9386L459.153 41.9387L459.807 42.4ZM463.407 38.8L463.875 39.4485L463.887 39.4402L463.898 39.4315L463.407 38.8ZM468.447 36.16L468.203 35.398L468.194 35.4011L468.447 36.16ZM492.687 86.32H491.887V87.12H492.687V86.32ZM501.927 86.32H502.727V85.52H501.927V86.32ZM501.927 88V88.8H502.727V88H501.927ZM473.127 88H472.327V88.8H473.127V88ZM473.127 86.32V85.52H472.327V86.32H473.127ZM482.367 86.32V87.12H483.167V86.32H482.367ZM480.087 39.16L479.506 39.7102L479.513 39.718L479.521 39.7257L480.087 39.16ZM468.087 38.08L468.358 38.8327L468.371 38.828L468.384 38.8228L468.087 38.08ZM462.687 41.44L462.136 40.86L462.136 40.86L462.687 41.44ZM458.727 47.32L457.993 47.0019L457.988 47.0123L457.984 47.0229L458.727 47.32ZM457.287 86.32H456.487V87.12H457.287V86.32ZM466.527 86.32H467.327V85.52H466.527V86.32ZM466.527 88V88.8H467.327V88H466.527ZM437.727 88H436.927V88.8H437.727V88ZM437.727 86.32V85.52H436.927V86.32H437.727ZM446.967 86.32V87.12H447.767V86.32H446.967ZM444.807 39.4L445.414 38.8794L445.414 38.8794L444.807 39.4ZM433.527 38.2L433.824 38.9428L433.836 38.9377L433.849 38.9322L433.527 38.2ZM427.887 42.16L427.308 41.607L427.308 41.6076L427.887 42.16ZM423.567 49.12L422.828 48.8123L422.824 48.8211L422.821 48.83L423.567 49.12ZM421.887 86.32H421.087V87.12H421.887V86.32ZM431.127 86.32H431.927V85.52H431.127V86.32ZM431.127 88V88.8H431.927V88H431.127ZM402.327 88H401.527V88.8H402.327V88ZM402.327 87.12H411.567V85.52H402.327V87.12ZM412.367 86.32V38.2H410.767V86.32H412.367ZM411.567 37.4H402.327V39H411.567V37.4ZM403.127 38.2V36.52H401.527V38.2H403.127ZM402.327 37.32H421.647V35.72H402.327V37.32ZM420.847 36.52V49.12H422.447V36.52H420.847ZM421.647 49.92H421.887V48.32H421.647V49.92ZM422.642 49.3843C424.285 44.6897 426.604 41.3273 429.553 39.2099L428.62 37.9101C425.329 40.2727 422.848 43.9503 421.131 48.8557L422.642 49.3843ZM429.545 39.2154C432.592 37.0829 436.266 36 440.607 36V34.4C435.987 34.4 431.981 35.5571 428.628 37.9046L429.545 39.2154ZM440.607 36C444.486 36 447.864 36.8522 450.766 38.5323L451.567 37.1477C448.389 35.3078 444.727 34.4 440.607 34.4V36ZM450.774 38.5368C453.665 40.1681 455.59 42.8803 456.508 46.7832L458.065 46.4168C457.064 42.1597 454.908 39.0319 451.56 37.1432L450.774 38.5368ZM457.287 47.4H457.527V45.8H457.287V47.4ZM458.272 46.89C458.807 45.5151 459.535 44.1723 460.46 42.8613L459.153 41.9387C458.158 43.3477 457.366 44.8049 456.781 46.31L458.272 46.89ZM460.46 42.8613C461.366 41.5782 462.502 40.4403 463.875 39.4485L462.938 38.1515C461.431 39.2397 460.167 40.5017 459.153 41.9386L460.46 42.8613ZM463.898 39.4315C465.259 38.3729 466.856 37.5334 468.7 36.9189L468.194 35.4011C466.197 36.0666 464.434 36.9871 462.915 38.1685L463.898 39.4315ZM468.69 36.9219C470.599 36.3112 472.755 36 475.167 36V34.4C472.618 34.4 470.294 34.7288 468.203 35.3981L468.69 36.9219ZM475.167 36C480.879 36 485.017 37.4564 487.735 40.2299C490.456 43.0064 491.887 47.2393 491.887 53.08H493.487C493.487 47.0007 491.997 42.2935 488.878 39.1101C485.756 35.9236 481.134 34.4 475.167 34.4V36ZM491.887 53.08V86.32H493.487V53.08H491.887ZM492.687 87.12H501.927V85.52H492.687V87.12ZM501.127 86.32V88H502.727V86.32H501.127ZM501.927 87.2H473.127V88.8H501.927V87.2ZM473.927 88V86.32H472.327V88H473.927ZM473.127 87.12H482.367V85.52H473.127V87.12ZM483.167 86.32V45.52H481.567V86.32H483.167ZM483.167 45.52C483.167 42.6471 482.36 40.3016 480.652 38.5943L479.521 39.7257C480.854 41.0584 481.567 42.9529 481.567 45.52H483.167ZM480.667 38.6098C479.044 36.8959 476.814 36.08 474.087 36.08V37.68C476.479 37.68 478.25 38.3841 479.506 39.7102L480.667 38.6098ZM474.087 36.08C471.977 36.08 469.877 36.5024 467.789 37.3372L468.384 38.8228C470.297 38.0576 472.196 37.68 474.087 37.68V36.08ZM467.816 37.3273C465.707 38.0863 463.813 39.2666 462.136 40.86L463.238 42.02C464.76 40.5734 466.466 39.5137 468.358 38.8327L467.816 37.3273ZM462.136 40.86C460.445 42.4665 459.068 44.5212 457.993 47.0019L459.461 47.6381C460.466 45.3188 461.729 43.4535 463.238 42.02L462.136 40.86ZM457.984 47.0229C456.978 49.5369 456.487 52.4416 456.487 55.72H458.087C458.087 52.5984 458.555 49.9031 459.469 47.6171L457.984 47.0229ZM456.487 55.72V86.32H458.087V55.72H456.487ZM457.287 87.12H466.527V85.52H457.287V87.12ZM465.727 86.32V88H467.327V86.32H465.727ZM466.527 87.2H437.727V88.8H466.527V87.2ZM438.527 88V86.32H436.927V88H438.527ZM437.727 87.12H446.967V85.52H437.727V87.12ZM447.767 86.32V47.2H446.167V86.32H447.767ZM447.767 47.2C447.767 43.5955 447.033 40.7687 445.414 38.8794L444.199 39.9206C445.46 41.3913 446.167 43.7645 446.167 47.2H447.767ZM445.414 38.8794C443.808 37.0057 441.658 36.08 439.047 36.08V37.68C441.235 37.68 442.925 38.4343 444.199 39.9206L445.414 38.8794ZM439.047 36.08C437.228 36.08 435.277 36.5559 433.204 37.4677L433.849 38.9322C435.776 38.0841 437.505 37.68 439.047 37.68V36.08ZM433.229 37.4572C431.106 38.3067 429.133 39.6993 427.308 41.607L428.465 42.713C430.16 40.9407 431.947 39.6933 433.824 38.9428L433.229 37.4572ZM427.308 41.6076C425.544 43.4556 424.056 45.8661 422.828 48.8123L424.305 49.4277C425.477 46.6139 426.869 44.3844 428.465 42.7124L427.308 41.6076ZM422.821 48.83C421.655 51.8284 421.087 55.4531 421.087 59.68H422.687C422.687 55.5869 423.238 52.1716 424.312 49.41L422.821 48.83ZM421.087 59.68V86.32H422.687V59.68H421.087ZM421.887 87.12H431.127V85.52H421.887V87.12ZM430.327 86.32V88H431.927V86.32H430.327ZM431.127 87.2H402.327V88.8H431.127V87.2ZM403.127 88V86.32H401.527V88H403.127ZM521.861 75.88L521.087 76.0827L521.087 76.0827L521.861 75.88ZM525.341 83.68L524.711 84.173L524.716 84.1799L524.721 84.1866L525.341 83.68ZM542.621 87.16L542.845 87.928L542.845 87.928L542.621 87.16ZM547.661 83.68L548.28 84.1866L548.285 84.1799L548.291 84.173L547.661 83.68ZM551.141 75.88L550.367 75.6773L550.367 75.6773L551.141 75.88ZM551.501 50.32L550.715 50.4732L550.716 50.4769L551.501 50.32ZM548.501 42.4L547.819 42.8193L547.829 42.8348L547.839 42.8498L548.501 42.4ZM524.381 42.4L523.711 41.9622L523.707 41.9688L524.381 42.4ZM521.501 50.32L522.285 50.4769L522.286 50.4732L521.501 50.32ZM511.061 51.4L510.352 51.0288L510.348 51.0355L510.345 51.0422L511.061 51.4ZM517.661 42.76L518.199 43.352L518.2 43.3512L517.661 42.76ZM526.661 37L526.36 36.2584L526.354 36.261L526.661 37ZM546.221 37L545.914 37.739L545.92 37.7416L546.221 37ZM555.221 42.76L554.673 43.3431L554.682 43.3516L554.691 43.3599L555.221 42.76ZM561.821 51.4L561.105 51.7578L561.108 51.7645L561.112 51.7712L561.821 51.4ZM562.061 73L562.78 73.3508L562.783 73.3439L562.061 73ZM555.701 81.64L555.153 81.0569L555.144 81.0654L555.701 81.64ZM546.821 87.52L547.136 88.2553L546.821 87.52ZM526.181 87.52L525.865 88.2553L525.865 88.2553L526.181 87.52ZM517.181 81.64L516.624 82.2147L516.633 82.2231L517.181 81.64ZM510.941 73L510.218 73.344L510.222 73.3507L510.941 73ZM519.741 62.32C519.741 68.031 520.182 72.6281 521.087 76.0827L522.635 75.6773C521.779 72.4119 521.341 67.969 521.341 62.32H519.741ZM521.087 76.0827C521.982 79.5015 523.179 82.2158 524.711 84.173L525.971 83.187C524.622 81.4642 523.499 78.9785 522.635 75.6773L521.087 76.0827ZM524.721 84.1866C526.249 86.0539 528.061 87.3167 530.157 87.928L530.605 86.392C528.86 85.8833 527.312 84.8261 525.96 83.1734L524.721 84.1866ZM530.157 87.928C532.155 88.5109 534.271 88.8 536.501 88.8V87.2C534.41 87.2 532.446 86.9291 530.605 86.392L530.157 87.928ZM536.501 88.8C538.73 88.8 540.846 88.5109 542.845 87.928L542.397 86.392C540.555 86.9291 538.591 87.2 536.501 87.2V88.8ZM542.845 87.928C544.94 87.3167 546.752 86.0539 548.28 84.1866L547.041 83.1734C545.689 84.8261 544.141 85.8833 542.397 86.392L542.845 87.928ZM548.291 84.173C549.822 82.2158 551.019 79.5015 551.915 76.0827L550.367 75.6773C549.502 78.9785 548.379 81.4642 547.031 83.187L548.291 84.173ZM551.915 76.0827C552.819 72.6281 553.261 68.031 553.261 62.32H551.661C551.661 67.969 551.222 72.4119 550.367 75.6773L551.915 76.0827ZM553.261 62.32C553.261 57.4895 552.939 53.4327 552.285 50.1631L550.716 50.4769C551.342 53.6073 551.661 57.5505 551.661 62.32H553.261ZM552.286 50.1668C551.632 46.8185 550.602 44.0669 549.162 41.9501L547.839 42.8498C549.12 44.7331 550.089 47.2615 550.715 50.4732L552.286 50.1668ZM549.182 41.9807C547.827 39.7793 546.069 38.1808 543.903 37.2277L543.258 38.6922C545.092 39.4992 546.614 40.8607 547.819 42.8193L549.182 41.9807ZM543.903 37.2277C541.78 36.2936 539.305 35.84 536.501 35.84V37.44C539.136 37.44 541.382 37.8664 543.258 38.6922L543.903 37.2277ZM536.501 35.84C533.696 35.84 531.222 36.2936 529.098 37.2277L529.743 38.6922C531.62 37.8664 533.865 37.44 536.501 37.44V35.84ZM529.098 37.2277C526.938 38.1784 525.144 39.7708 523.711 41.9622L525.05 42.8378C526.337 40.8692 527.903 39.5016 529.743 38.6922L529.098 37.2277ZM523.707 41.9688C522.355 44.0806 521.367 46.8252 520.715 50.1668L522.286 50.4732C522.914 47.2548 523.846 44.7194 525.054 42.8312L523.707 41.9688ZM520.716 50.1631C520.062 53.4327 519.741 57.4895 519.741 62.32H521.341C521.341 57.5505 521.659 53.6073 522.285 50.4769L520.716 50.1631ZM509.341 62.32C509.341 58.5186 510.154 55.0018 511.776 51.7578L510.345 51.0422C508.607 54.5182 507.741 58.2814 507.741 62.32H509.341ZM511.769 51.7712C513.489 48.4889 515.632 45.685 518.199 43.352L517.122 42.168C514.409 44.635 512.153 47.5911 510.352 51.0288L511.769 51.7712ZM518.2 43.3512C520.854 40.9312 523.776 39.0622 526.967 37.739L526.354 36.261C522.986 37.6577 519.907 39.6288 517.122 42.1688L518.2 43.3512ZM526.961 37.7416C530.238 36.4151 533.416 35.76 536.501 35.76V34.16C533.185 34.16 529.803 34.8649 526.36 36.2584L526.961 37.7416ZM536.501 35.76C539.585 35.76 542.721 36.4148 545.914 37.739L546.527 36.261C543.161 34.8651 539.817 34.16 536.501 34.16V35.76ZM545.92 37.7416C549.189 39.0645 552.105 40.9308 554.673 43.3431L555.768 42.1769C553.056 39.6292 549.972 37.6555 546.521 36.2584L545.92 37.7416ZM554.691 43.3599C557.332 45.6895 559.469 48.4863 561.105 51.7578L562.536 51.0422C560.812 47.5937 558.55 44.6305 555.75 42.1601L554.691 43.3599ZM561.112 51.7712C562.81 55.0128 563.661 58.5248 563.661 62.32H565.261C565.261 58.2752 564.351 54.5072 562.529 51.0288L561.112 51.7712ZM563.661 62.32C563.661 65.9623 562.887 69.4046 561.338 72.6561L562.783 73.3439C564.435 69.8754 565.261 66.1977 565.261 62.32H563.661ZM561.342 72.6493C559.784 75.8427 557.722 78.6439 555.153 81.0569L556.248 82.2231C558.96 79.6761 561.137 76.7173 562.78 73.3507L561.342 72.6493ZM555.144 81.0654C552.656 83.4758 549.778 85.3821 546.505 86.7847L547.136 88.2553C550.583 86.7779 553.625 84.7642 556.257 82.2146L555.144 81.0654ZM546.505 86.7847C543.241 88.1837 539.908 88.88 536.501 88.88V90.48C540.133 90.48 543.68 89.7363 547.136 88.2553L546.505 86.7847ZM536.501 88.88C533.093 88.88 529.76 88.1837 526.496 86.7847L525.865 88.2553C529.321 89.7363 532.868 90.48 536.501 90.48V88.88ZM526.496 86.7847C523.221 85.3811 520.3 83.4724 517.728 81.0569L516.633 82.2231C519.342 84.7676 522.42 86.7789 525.865 88.2553L526.496 86.7847ZM517.737 81.0654C515.246 78.6516 513.22 75.8478 511.66 72.6493L510.222 73.3507C511.861 76.7122 513.996 79.6684 516.624 82.2146L517.737 81.0654ZM511.663 72.6561C510.115 69.4046 509.341 65.9623 509.341 62.32H507.741C507.741 66.1977 508.567 69.8754 510.218 73.3439L511.663 72.6561ZM571.62 86.32V85.52H570.82V86.32H571.62ZM580.86 86.32V87.12H581.66V86.32H580.86ZM580.86 38.2H581.66V37.4H580.86V38.2ZM571.62 38.2H570.82V39H571.62V38.2ZM571.62 36.52V35.72H570.82V36.52H571.62ZM590.94 36.52H591.74V35.72H590.94V36.52ZM590.94 49.36H590.14V50.16H590.94V49.36ZM591.18 49.36V50.16H591.692L591.907 49.6952L591.18 49.36ZM593.22 45.4L592.534 44.9884L592.527 45.0013L592.519 45.0145L593.22 45.4ZM597.06 40.72L597.611 41.3L597.611 41.3L597.06 40.72ZM603.06 36.88L603.378 37.614L603.389 37.6096L603.399 37.6049L603.06 36.88ZM624.66 39.04L624.168 39.6707L624.175 39.6763L624.66 39.04ZM629.7 86.32H628.9V87.12H629.7V86.32ZM638.94 86.32H639.74V85.52H638.94V86.32ZM638.94 88V88.8H639.74V88H638.94ZM610.14 88H609.34V88.8H610.14V88ZM610.14 86.32V85.52H609.34V86.32H610.14ZM619.38 86.32V87.12H620.18V86.32H619.38ZM617.1 39.88L616.451 40.3474L616.457 40.3558L616.463 40.3641L617.1 39.88ZM596.82 43.24L597.421 43.7685L597.421 43.7685L596.82 43.24ZM592.62 50.32L591.873 50.0343L591.869 50.044L591.866 50.0537L592.62 50.32ZM591.18 86.32H590.38V87.12H591.18V86.32ZM600.42 86.32H601.22V85.52H600.42V86.32ZM600.42 88V88.8H601.22V88H600.42ZM571.62 88H570.82V88.8H571.62V88ZM571.62 87.12H580.86V85.52H571.62V87.12ZM581.66 86.32V38.2H580.06V86.32H581.66ZM580.86 37.4H571.62V39H580.86V37.4ZM572.42 38.2V36.52H570.82V38.2H572.42ZM571.62 37.32H590.94V35.72H571.62V37.32ZM590.14 36.52V49.36H591.74V36.52H590.14ZM590.94 50.16H591.18V48.56H590.94V50.16ZM591.907 49.6952C592.376 48.6792 593.046 47.3775 593.921 45.7855L592.519 45.0145C591.635 46.6225 590.945 47.9608 590.454 49.0247L591.907 49.6952ZM593.906 45.8116C594.823 44.2836 596.054 42.779 597.611 41.3L596.509 40.14C594.866 41.701 593.538 43.3163 592.534 44.9884L593.906 45.8116ZM597.611 41.3C599.132 39.8553 601.049 38.6235 603.378 37.614L602.742 36.146C600.272 37.2165 598.189 38.5447 596.509 40.14L597.611 41.3ZM603.399 37.6049C605.666 36.5468 608.464 36 611.82 36V34.4C608.297 34.4 605.255 34.9732 602.722 36.155L603.399 37.6049ZM611.82 36C616.971 36 621.063 37.247 624.168 39.6706L625.153 38.4093C621.698 35.713 617.23 34.4 611.82 34.4V36ZM624.175 39.6763C627.276 42.0386 628.9 45.8415 628.9 51.28H630.5C630.5 45.5185 628.765 41.1614 625.145 38.4037L624.175 39.6763ZM628.9 51.28V86.32H630.5V51.28H628.9ZM629.7 87.12H638.94V85.52H629.7V87.12ZM638.14 86.32V88H639.74V86.32H638.14ZM638.94 87.2H610.14V88.8H638.94V87.2ZM610.94 88V86.32H609.34V88H610.94ZM610.14 87.12H619.38V85.52H610.14V87.12ZM620.18 86.32V47.56H618.58V86.32H620.18ZM620.18 47.56C620.18 44.3083 619.386 41.5659 617.737 39.3959L616.463 40.3641C617.854 42.1941 618.58 44.5717 618.58 47.56H620.18ZM617.75 39.4126C616.12 37.1488 613.561 36.08 610.26 36.08V37.68C613.199 37.68 615.201 38.6112 616.451 40.3474L617.75 39.4126ZM610.26 36.08C607.579 36.08 605.02 36.6675 602.593 37.8396L603.288 39.2804C605.5 38.2125 607.822 37.68 610.26 37.68V36.08ZM602.593 37.8396C600.173 39.0076 598.048 40.6341 596.22 42.7115L597.421 43.7685C599.113 41.8459 601.068 40.3524 603.288 39.2804L602.593 37.8396ZM596.22 42.7115C594.391 44.7894 592.944 47.2336 591.873 50.0343L593.368 50.6057C594.377 47.9664 595.729 45.6906 597.421 43.7685L596.22 42.7115ZM591.866 50.0537C590.873 52.8681 590.38 55.9192 590.38 59.2H591.98C591.98 56.0808 592.448 53.2119 593.375 50.5863L591.866 50.0537ZM590.38 59.2V86.32H591.98V59.2H590.38ZM591.18 87.12H600.42V85.52H591.18V87.12ZM599.62 86.32V88H601.22V86.32H599.62ZM600.42 87.2H571.62V88.8H600.42V87.2ZM572.42 88V86.32H570.82V88H572.42Z" fill="black"/>
</svg>
